<?xml version="1.0" encoding="utf-8"?>
<!-- Generator: Adobe Illustrator 16.0.4, SVG Export Plug-In . SVG Version: 6.00 Build 0)  -->
<!DOCTYPE svg PUBLIC "-//W3C//DTD SVG 1.1//EN" "http://www.w3.org/Graphics/SVG/1.1/DTD/svg11.dtd">
<svg version="1.1" id="Layer_1" xmlns="http://www.w3.org/2000/svg" xmlns:xlink="http://www.w3.org/1999/xlink" x="0px" y="0px"
	 width="161px" height="161px" viewBox="0 0 161 161" enable-background="new 0 0 161 161" xml:space="preserve">
<g display="none">
	<rect x="0.5" y="0.5" display="inline" fill="none" stroke="#B7B7B7" stroke-miterlimit="10" width="160" height="160"/>
	<line display="inline" fill="none" stroke="#B7B7B7" stroke-miterlimit="10" x1="161" y1="9.5" x2="1" y2="9.5"/>
	<line display="inline" fill="none" stroke="#B7B7B7" stroke-miterlimit="10" x1="161" y1="18.5" x2="1" y2="18.5"/>
	<line display="inline" fill="none" stroke="#B7B7B7" stroke-miterlimit="10" x1="161" y1="28.5" x2="1" y2="28.5"/>
	<line display="inline" fill="none" stroke="#B7B7B7" stroke-miterlimit="10" x1="161" y1="37.5" x2="1" y2="37.5"/>
	<line display="inline" fill="none" stroke="#B7B7B7" stroke-miterlimit="10" x1="161" y1="47.5" x2="1" y2="47.5"/>
	<line display="inline" fill="none" stroke="#B7B7B7" stroke-miterlimit="10" x1="161" y1="56.5" x2="1" y2="56.5"/>
	<line display="inline" fill="none" stroke="#B7B7B7" stroke-miterlimit="10" x1="161" y1="65.5" x2="1" y2="65.5"/>
	<line display="inline" fill="none" stroke="#B7B7B7" stroke-miterlimit="10" x1="161" y1="75.5" x2="1" y2="75.5"/>
	<line display="inline" fill="none" stroke="#B7B7B7" stroke-miterlimit="10" x1="161" y1="84.5" x2="1" y2="84.5"/>
	<line display="inline" fill="none" stroke="#B7B7B7" stroke-miterlimit="10" x1="161" y1="94.5" x2="1" y2="94.5"/>
	<line display="inline" fill="none" stroke="#B7B7B7" stroke-miterlimit="10" x1="161" y1="103.5" x2="1" y2="103.5"/>
	<line display="inline" fill="none" stroke="#B7B7B7" stroke-miterlimit="10" x1="161" y1="112.5" x2="1" y2="112.5"/>
	<line display="inline" fill="none" stroke="#B7B7B7" stroke-miterlimit="10" x1="161" y1="122.5" x2="1" y2="122.5"/>
	<line display="inline" fill="none" stroke="#B7B7B7" stroke-miterlimit="10" x1="161" y1="131.5" x2="1" y2="131.5"/>
	<line display="inline" fill="none" stroke="#B7B7B7" stroke-miterlimit="10" x1="161" y1="141.5" x2="1" y2="141.5"/>
	<line display="inline" fill="none" stroke="#B7B7B7" stroke-miterlimit="10" x1="161" y1="150.5" x2="1" y2="150.5"/>
	<line display="inline" fill="none" stroke="#B7B7B7" stroke-miterlimit="10" x1="10.5" y1="160" x2="10.5" y2="0"/>
	<line display="inline" fill="none" stroke="#B7B7B7" stroke-miterlimit="10" x1="19.5" y1="160" x2="19.5" y2="0"/>
	<line display="inline" fill="none" stroke="#B7B7B7" stroke-miterlimit="10" x1="29.5" y1="160" x2="29.5" y2="0"/>
	<line display="inline" fill="none" stroke="#B7B7B7" stroke-miterlimit="10" x1="38.5" y1="160" x2="38.5" y2="0"/>
	<line display="inline" fill="none" stroke="#B7B7B7" stroke-miterlimit="10" x1="48.5" y1="160" x2="48.5" y2="0"/>
	<line display="inline" fill="none" stroke="#B7B7B7" stroke-miterlimit="10" x1="57.5" y1="160" x2="57.5" y2="0"/>
	<line display="inline" fill="none" stroke="#B7B7B7" stroke-miterlimit="10" x1="66.5" y1="160" x2="66.5" y2="0"/>
	<line display="inline" fill="none" stroke="#B7B7B7" stroke-miterlimit="10" x1="76.5" y1="160" x2="76.5" y2="0"/>
	<line display="inline" fill="none" stroke="#B7B7B7" stroke-miterlimit="10" x1="85.5" y1="160" x2="85.5" y2="0"/>
	<line display="inline" fill="none" stroke="#B7B7B7" stroke-miterlimit="10" x1="95.5" y1="160" x2="95.5" y2="0"/>
	<line display="inline" fill="none" stroke="#B7B7B7" stroke-miterlimit="10" x1="104.5" y1="160" x2="104.5" y2="0"/>
	<line display="inline" fill="none" stroke="#B7B7B7" stroke-miterlimit="10" x1="113.5" y1="160" x2="113.5" y2="0"/>
	<line display="inline" fill="none" stroke="#B7B7B7" stroke-miterlimit="10" x1="123.5" y1="160" x2="123.5" y2="0"/>
	<line display="inline" fill="none" stroke="#B7B7B7" stroke-miterlimit="10" x1="132.5" y1="160" x2="132.5" y2="0"/>
	<line display="inline" fill="none" stroke="#B7B7B7" stroke-miterlimit="10" x1="142.5" y1="160" x2="142.5" y2="0"/>
	<line display="inline" fill="none" stroke="#B7B7B7" stroke-miterlimit="10" x1="151.5" y1="160" x2="151.5" y2="0"/>
</g>
<g>
	<path fill="#292F34" d="M43.414,10.92h8.687c2.398,0,4.343,1.95,4.343,4.351v26.095c0,2.402-1.943,4.351-4.343,4.351h-8.687
		c-2.4,0-4.343-1.948-4.343-4.351V15.271C39.071,12.87,41.014,10.92,43.414,10.92z"/>
	<path fill="#292F34" d="M108.898,10.92h8.687c2.401,0,4.345,1.95,4.345,4.351v26.095c0,2.402-1.943,4.351-4.345,4.351h-8.687
		c-2.395,0-4.342-1.948-4.342-4.351V15.271C104.559,12.87,106.507,10.92,108.898,10.92z"/>
	<g>
		<path fill="#292F34" d="M139.299,28.314h-8.686v21.751c0,2.402-1.94,4.343-4.344,4.343h-26.06c-2.396,0-4.342-1.941-4.342-4.343
			V28.314h-30.74v21.751c0,2.402-1.944,4.343-4.343,4.343H34.729c-2.401,0-4.343-1.941-4.343-4.343V28.314H21.7
			c-4.796,0-8.685,3.897-8.685,8.701v104.371c0,4.804,3.889,8.694,8.685,8.694h117.599c4.799,0,8.686-3.893,8.686-8.694V37.015
			C147.984,32.211,144.098,28.314,139.299,28.314z M136.299,134.045c0,2.4-1.939,4.341-4.343,4.341H29.044
			c-2.4,0-4.344-1.94-4.344-4.341V67.452c0-2.402,1.942-4.35,4.344-4.35h102.912c2.401,0,4.343,1.948,4.343,4.35V134.045
			L136.299,134.045z"/>
	</g>
</g>
</svg>
