<?xml version="1.0" encoding="utf-8"?>
<!-- Generator: Adobe Illustrator 16.0.4, SVG Export Plug-In . SVG Version: 6.00 Build 0)  -->
<!DOCTYPE svg PUBLIC "-//W3C//DTD SVG 1.1//EN" "http://www.w3.org/Graphics/SVG/1.1/DTD/svg11.dtd">
<svg version="1.1" id="Layer_1" xmlns="http://www.w3.org/2000/svg" xmlns:xlink="http://www.w3.org/1999/xlink" x="0px" y="0px"
	 width="554.723px" height="232.493px" viewBox="0 0 554.723 232.493" enable-background="new 0 0 554.723 232.493"
	 xml:space="preserve">
<g>
	<path fill="none" stroke="#8ADCFF" stroke-width="2" stroke-linecap="round" stroke-linejoin="round" stroke-miterlimit="10" d="
		M552.317,46.795H344.364c-0.773,0-1.403,0.628-1.403,1.404v7.49v148.753v7.49c0,0.774,0.63,1.403,1.403,1.403h207.953
		c0.778,0,1.405-0.629,1.405-1.403v-7.49V55.689v-7.49C553.723,47.424,553.096,46.795,552.317,46.795z"/>
	
		<line fill="none" stroke="#8ADCFF" stroke-width="2" stroke-linecap="round" stroke-linejoin="round" stroke-miterlimit="10" x1="344" y1="68.402" x2="553" y2="68.402"/>
	<path fill="none" stroke="#8ADCFF" stroke-width="2" stroke-linecap="round" stroke-linejoin="round" stroke-miterlimit="10" d="
		M530.075,59.566c0,0.776-0.627,1.403-1.405,1.403H370.863c-0.777,0-1.403-0.627-1.403-1.403v-3.431
		c0-0.775,0.626-1.402,1.403-1.402H528.67c0.778,0,1.405,0.627,1.405,1.402V59.566z"/>
</g>
<g>
	<g>
		<path fill="none" stroke="#8ADCFF" stroke-width="2" stroke-linecap="round" stroke-linejoin="round" stroke-miterlimit="10" d="
			M466.86,184.434v-0.803c0,0.335-0.111,0.633-0.264,0.906C466.686,184.504,466.772,184.465,466.86,184.434z"/>
		<path fill="none" stroke="#8ADCFF" stroke-width="2" stroke-linecap="round" stroke-linejoin="round" stroke-miterlimit="10" d="
			M472.396,181.883c0.073-0.041,0.143-0.084,0.215-0.123c-0.13-0.365-0.215-0.752-0.215-1.16V181.883z"/>
		<path fill="none" stroke="#8ADCFF" stroke-width="2" stroke-linecap="round" stroke-linejoin="round" stroke-miterlimit="10" d="
			M449.766,92.781c-26.188,0-47.417,21.231-47.417,47.419c0,26.19,21.229,47.421,47.417,47.421c5.052,0,9.918-0.797,14.483-2.262
			c-0.67-0.285-1.142-0.949-1.142-1.729v-11.151V171v-8.367c3.483-3.931,5.613-9.083,5.613-14.748v-2.921v-2.526v-0.395v-2.521
			v-0.397V136.6v-2.919c0-2.674-0.495-5.227-1.357-7.601c1.139-0.616,2.422-0.998,3.807-0.998c4.455,0,8.064,3.611,8.064,8.064
			v31.962v0.001v12.23c10.934-8.688,17.952-22.091,17.952-37.14C497.187,114.013,475.954,92.781,449.766,92.781z"/>
	</g>
	<path fill="none" stroke="#8ADCFF" stroke-width="2" stroke-linecap="round" stroke-linejoin="round" stroke-miterlimit="10" d="
		M446.442,111.405c-12.301,0-22.272,9.973-22.272,22.275v2.919v2.525v0.397v2.521v0.395v2.526v2.921
		c0,12.302,9.972,22.272,22.272,22.272c12.308,0,22.278-9.971,22.278-22.272v-2.921v-2.526v-0.395v-2.521v-0.397V136.6v-2.919
		C468.721,121.378,458.75,111.405,446.442,111.405z"/>
	<path fill="none" stroke="#8ADCFF" stroke-width="2" stroke-linecap="round" stroke-linejoin="round" stroke-miterlimit="10" d="
		M468.721,133.681c0-12.303-9.971-22.275-22.278-22.275c-12.301,0-22.272,9.973-22.272,22.275v2.919v0.24
		c0.003,0,0.008-0.001,0.008-0.005c0,0.086-0.008,0.171-0.008,0.256v0.094c0.852,0.379,1.793,0.595,2.787,0.595
		c3.822,0,6.924-3.095,6.924-6.917c0,3.822,3.097,6.917,6.919,6.917c3.821,0,6.921-3.095,6.921-6.917
		c0,3.822,3.103,6.917,6.924,6.917c3.822,0,6.919-3.095,6.919-6.917c0,3.822,3.101,6.917,6.921,6.917
		c0.081,0,0.155-0.01,0.236-0.015v-0.674c0-0.002,0-0.005,0-0.009V136.6V133.681z"/>
	<path fill="none" stroke="#8ADCFF" stroke-width="2" stroke-linecap="round" stroke-linejoin="round" stroke-miterlimit="10" d="
		M471.17,125.082c-1.385,0-2.668,0.382-3.807,0.998c0.862,2.374,1.357,4.927,1.357,7.601v2.919v2.525v0.397v2.521v0.395v2.526v2.921
		c0,5.665-2.13,10.817-5.613,14.748V171v1.479v11.151c0,1.039,0.841,1.881,1.877,1.881c1.037,0,1.876-0.842,1.876-1.881v4.646
		c0,1.527,1.24,2.768,2.767,2.768c1.531,0,2.769-1.24,2.769-2.768V180.6c0,1.887,1.527,3.419,3.42,3.419
		c1.889,0,3.419-1.532,3.419-3.419v-15.49v-0.001v-31.962C479.234,128.693,475.625,125.082,471.17,125.082z"/>
	<path fill="#8ADCFF" d="M468.55,122.885c-0.857,0-1.614,0.42-2.092,1.06c1.436,2.945,2.263,6.24,2.263,9.736v1.452
		c1.365-0.089,2.449-1.212,2.449-2.603v-7.023C471.17,124.057,469.998,122.885,468.55,122.885z"/>
</g>
<g>
	<path fill="none" stroke="#8ADCFF" stroke-width="2" stroke-linecap="round" stroke-linejoin="round" stroke-miterlimit="10" d="
		M210.524,48.104H2.569c-0.774,0-1.403,0.628-1.403,1.404v7.489v148.756v7.488c0,0.774,0.628,1.405,1.403,1.405h207.955
		c0.775,0,1.404-0.631,1.404-1.405v-7.488V56.997v-7.489C211.928,48.732,211.299,48.104,210.524,48.104z"/>
	
		<line fill="none" stroke="#8ADCFF" stroke-width="2" stroke-linecap="round" stroke-linejoin="round" stroke-miterlimit="10" x1="1" y1="69.402" x2="211" y2="69.402"/>
	<path fill="none" stroke="#8ADCFF" stroke-width="2" stroke-linecap="round" stroke-linejoin="round" stroke-miterlimit="10" d="
		M189.225,60.452c0,0.776-0.628,1.404-1.405,1.404H30.011c-0.776,0-1.403-0.627-1.403-1.404v-3.431c0-0.774,0.627-1.402,1.403-1.402
		H187.82c0.776,0,1.405,0.628,1.405,1.402V60.452z"/>
	<path fill="none" stroke="#8ADCFF" stroke-width="2" stroke-linecap="round" stroke-linejoin="round" stroke-miterlimit="10" d="
		M10.076,61.623c-0.105,0-0.211-0.025-0.304-0.081l-3.948-2.278c-0.188-0.109-0.304-0.308-0.304-0.526
		c0-0.218,0.116-0.417,0.304-0.525l3.948-2.278c0.093-0.056,0.199-0.083,0.304-0.083c0.104,0,0.208,0.028,0.302,0.083
		c0.188,0.108,0.303,0.306,0.303,0.524v4.558c0,0.218-0.116,0.417-0.303,0.525C10.283,61.597,10.179,61.623,10.076,61.623z"/>
	<path fill="none" stroke="#8ADCFF" stroke-width="2" stroke-linecap="round" stroke-linejoin="round" stroke-miterlimit="10" d="
		M18.499,61.623c0.106,0,0.209-0.025,0.303-0.081l3.948-2.278c0.187-0.109,0.303-0.308,0.303-0.526c0-0.218-0.116-0.417-0.303-0.525
		l-3.948-2.278c-0.093-0.056-0.197-0.083-0.303-0.083c-0.104,0-0.208,0.028-0.303,0.083c-0.188,0.108-0.303,0.306-0.303,0.524v4.558
		c0,0.218,0.115,0.417,0.303,0.525C18.291,61.597,18.395,61.623,18.499,61.623z"/>
</g>
<g>
	<path fill="none" stroke="#8ADCFF" stroke-width="2" stroke-linecap="round" stroke-linejoin="round" stroke-miterlimit="10" d="
		M148.226,138.967c0,25.846-20.956,46.803-46.798,46.803c-25.846,0-46.8-20.957-46.8-46.803c0-25.845,20.954-46.798,46.8-46.798
		C127.27,92.169,148.226,113.122,148.226,138.967z"/>
	<path fill="none" stroke="#8ADCFF" stroke-width="2" stroke-linecap="round" stroke-linejoin="round" stroke-miterlimit="10" d="
		M102.714,109.873c-12.854,0-23.274,10.42-23.274,23.274v3.047v2.639v0.413v2.642v0.408v2.64v3.05
		c0,12.851,10.421,23.274,23.274,23.274c12.855,0,23.275-10.424,23.275-23.274v-3.05v-2.64v-0.408v-2.642v-0.413v-2.639v-3.047
		C125.99,120.293,115.569,109.873,102.714,109.873z"/>
	<path fill="none" stroke="#8ADCFF" stroke-width="2" stroke-linecap="round" stroke-linejoin="round" stroke-miterlimit="10" d="
		M100.968,109.946c-0.314,0.023-0.625,0.049-0.934,0.085c-0.144,0.017-0.294,0.036-0.439,0.055
		c-0.306,0.043-0.609,0.086-0.913,0.141c-0.131,0.022-0.261,0.046-0.389,0.07c-0.364,0.071-0.728,0.151-1.085,0.238
		c-0.059,0.012-0.117,0.024-0.172,0.037c-0.883,0.224-1.748,0.497-2.586,0.817c-0.029,0.008-0.049,0.021-0.079,0.029
		c-0.4,0.155-0.798,0.319-1.187,0.497c-0.021,0.007-0.038,0.017-0.057,0.025c-3.733,1.697-6.945,4.355-9.313,7.653
		c-0.003-0.001-0.004-0.003-0.007-0.007c-2.746,3.821-4.368,8.499-4.368,13.56v3.047v2.639v0.413v2.642v0.408v2.64v3.05
		c0,0.386,0.014,0.776,0.035,1.166c3.423-0.021,6.196-2.799,6.196-6.227v-12.456c4.89,1.644,10.61,2.61,16.752,2.61
		c6.538,0,12.615-1.078,17.699-2.921v12.767c0,3.307,2.584,6,5.838,6.205c0.018-0.383,0.029-0.765,0.029-1.145v-3.05v-2.64v-0.408
		v-2.642v-0.413v-2.639v-3.047c0-4.963-1.563-9.562-4.206-13.34c-0.008,0.006-0.009,0.008-0.017,0.017
		c-2.625-3.756-6.325-6.701-10.65-8.381c-0.006-0.001-0.018-0.006-0.022-0.013c-1.264-0.483-2.578-0.867-3.935-1.129
		c-0.116-0.02-0.227-0.038-0.34-0.062c-0.32-0.054-0.639-0.105-0.967-0.147c-0.144-0.021-0.282-0.042-0.429-0.057
		c-0.312-0.036-0.631-0.063-0.948-0.088c-0.139-0.014-0.27-0.022-0.406-0.031c-0.447-0.027-0.899-0.042-1.356-0.042
		c-0.447,0-0.897,0.015-1.339,0.042C101.237,109.923,101.103,109.932,100.968,109.946z"/>
</g>
<path fill="none" stroke="#0C9273" stroke-width="2" stroke-linecap="round" stroke-linejoin="round" stroke-miterlimit="10" d="
	M407.026,58.57c0.104,0,0.21-0.027,0.304-0.082l3.948-2.278c0.187-0.109,0.302-0.309,0.302-0.525c0-0.216-0.115-0.417-0.302-0.527
	l-3.948-2.276c-0.094-0.056-0.199-0.083-0.304-0.083c-0.105,0-0.209,0.026-0.302,0.083c-0.188,0.108-0.305,0.308-0.305,0.523v4.559
	c0,0.218,0.116,0.417,0.305,0.524C406.817,58.543,406.921,58.57,407.026,58.57z"/>
<path fill="#EFE6F1" stroke="#0C9273" stroke-width="2" stroke-linecap="round" stroke-linejoin="round" stroke-miterlimit="10" d="
	M424.303,1H136.492c-1.072,0-1.941,0.868-1.941,1.942v10.367v205.877v10.364c0,1.072,0.869,1.942,1.941,1.942h287.811
	c1.071,0,1.941-0.87,1.941-1.942v-10.364V13.309V2.942C426.244,1.868,425.374,1,424.303,1z"/>
<path fill="#FFFFFF" stroke="#0096D6" stroke-miterlimit="10" d="M424.303,1H136.492c-1.072,0-1.941,0.868-1.941,1.942v10.367V24.14
	h291.693V13.309V2.942C426.244,1.868,425.374,1,424.303,1z"/>
<path fill="none" stroke="#0096D6" stroke-width="2" stroke-linecap="round" stroke-linejoin="round" stroke-miterlimit="10" d="
	M424.303,1H136.492c-1.072,0-1.941,0.868-1.941,1.942v10.367v205.877v10.364c0,1.072,0.869,1.942,1.941,1.942h287.811
	c1.071,0,1.941-0.87,1.941-1.942v-10.364V13.309V2.942C426.244,1.868,425.374,1,424.303,1z"/>
<line fill="none" stroke="#0096D6" stroke-width="2" stroke-linecap="round" stroke-linejoin="round" stroke-miterlimit="10" x1="135" y1="24.402" x2="424" y2="24.402"/>
<path fill="none" stroke="#0096D6" stroke-width="2" stroke-miterlimit="10" d="M393.52,15.677c0,1.074-0.872,1.941-1.944,1.941
	h-218.41c-1.073,0-1.942-0.868-1.942-1.941v-4.748c0-1.073,0.87-1.942,1.942-1.942h218.41c1.072,0,1.944,0.87,1.944,1.942V15.677z"
	/>
<path fill="none" stroke="#0096D6" stroke-width="2" stroke-miterlimit="10" d="M146.879,17.295c-0.144,0-0.291-0.035-0.419-0.111
	l-5.465-3.155c-0.259-0.148-0.419-0.427-0.419-0.727s0.16-0.577,0.419-0.727l5.465-3.153c0.128-0.076,0.275-0.115,0.419-0.115
	c0.146,0,0.29,0.039,0.42,0.115c0.26,0.149,0.419,0.426,0.419,0.726v6.309c0,0.3-0.159,0.576-0.419,0.727
	C147.169,17.261,147.025,17.295,146.879,17.295z"/>
<path fill="none" stroke="#0096D6" stroke-width="2" stroke-miterlimit="10" d="M158.539,17.295c0.145,0,0.29-0.035,0.419-0.111
	l5.464-3.155c0.26-0.148,0.419-0.427,0.419-0.727s-0.159-0.577-0.419-0.727l-5.464-3.153c-0.129-0.076-0.274-0.115-0.419-0.115
	c-0.146,0-0.289,0.039-0.42,0.115c-0.259,0.149-0.419,0.426-0.419,0.726v6.309c0,0.3,0.16,0.576,0.419,0.727
	C158.25,17.261,158.393,17.295,158.539,17.295z"/>
<circle fill="none" stroke="#B081B9" stroke-width="2" stroke-linecap="round" stroke-linejoin="round" stroke-miterlimit="10" cx="280.398" cy="128.502" r="66.511"/>
<circle fill="#EFE6F1" stroke="#B081B9" stroke-width="2" stroke-linecap="round" stroke-linejoin="round" stroke-miterlimit="10" cx="213.649" cy="126.93" r="29.831"/>
<circle fill="#EFE6F1" stroke="#B081B9" stroke-width="2" stroke-linecap="round" stroke-linejoin="round" stroke-miterlimit="10" cx="344.162" cy="126.93" r="29.832"/>
<circle fill="#EFE6F1" stroke="#B081B9" stroke-width="2" stroke-linecap="round" stroke-linejoin="round" stroke-miterlimit="10" cx="281.94" cy="190.669" r="29.83"/>
<path fill="#FFFFFF" stroke="#B081B9" stroke-width="2" stroke-linecap="round" stroke-linejoin="round" stroke-miterlimit="10" d="
	M213.601,108.072c-8.093,0-14.653,6.561-14.653,14.653v1.921v1.659v0.262v1.659v0.261v1.662v1.918
	c0,8.095,6.56,14.652,14.653,14.652c8.092,0,14.651-6.558,14.651-14.652v-1.918v-1.662v-0.261v-1.659v-0.262v-1.659v-1.921
	C228.252,114.633,221.693,108.072,213.601,108.072z"/>
<path fill="#B081B9" stroke="#B081B9" stroke-width="2" stroke-linecap="round" stroke-linejoin="round" stroke-miterlimit="10" d="
	M228.234,122.021c-0.367-7.762-6.777-13.949-14.633-13.949c-6.984,0-12.823,4.889-14.292,11.429
	c1.267,1.992,3.486,3.318,6.021,3.318c0.937,0,1.829-0.188,2.647-0.515c2.317,2.994,5.943,4.924,10.021,4.924
	C222.206,127.229,225.931,125.176,228.234,122.021z"/>
<path fill="#FFFFFF" stroke="#B081B9" stroke-width="2" stroke-linecap="round" stroke-linejoin="round" stroke-miterlimit="10" d="
	M344.982,108.384c-8.193,0-14.836,6.644-14.836,14.836v1.943v1.682v0.263v1.684v0.261v1.682v1.944
	c0,8.191,6.643,14.834,14.836,14.834s14.836-6.643,14.836-14.834v-1.944v-1.682v-0.261v-1.684v-0.263v-1.682v-1.943
	C359.818,115.028,353.176,108.384,344.982,108.384z"/>
<path fill="#B081B9" stroke="#B081B9" stroke-width="2" stroke-linecap="round" stroke-linejoin="round" stroke-miterlimit="10" d="
	M343.869,108.431c-0.201,0.015-0.398,0.031-0.595,0.055c-0.094,0.011-0.188,0.022-0.28,0.035c-0.196,0.027-0.391,0.055-0.582,0.091
	c-0.083,0.014-0.166,0.029-0.248,0.043c-0.232,0.046-0.463,0.096-0.691,0.152c-0.037,0.008-0.075,0.015-0.11,0.023
	c-0.562,0.143-1.113,0.318-1.647,0.521c-0.018,0.006-0.031,0.013-0.051,0.019c-0.255,0.098-0.51,0.203-0.756,0.315
	c-0.013,0.006-0.022,0.012-0.034,0.017c-2.383,1.081-4.428,2.775-5.938,4.878c-0.003-0.001-0.004-0.003-0.005-0.004
	c-1.75,2.435-2.784,5.415-2.784,8.643v1.943v1.682v0.263v1.684v0.261v1.682v1.944c0,0.247,0.009,0.496,0.022,0.743
	c2.181-0.012,3.948-1.784,3.948-3.968v-7.942c3.117,1.05,6.764,1.666,10.679,1.666c4.167,0,8.042-0.69,11.283-1.864v8.14
	c0,2.106,1.646,3.823,3.72,3.955c0.014-0.244,0.02-0.486,0.02-0.73v-1.944v-1.682v-0.261v-1.684v-0.263v-1.682v-1.943
	c0-3.164-0.996-6.096-2.682-8.501c-0.004,0.003-0.006,0.004-0.01,0.009c-1.674-2.392-4.031-4.27-6.789-5.342
	c-0.005-0.002-0.01-0.005-0.014-0.008c-0.807-0.31-1.644-0.553-2.508-0.72c-0.073-0.013-0.145-0.024-0.218-0.04
	c-0.203-0.036-0.407-0.066-0.614-0.095c-0.093-0.014-0.182-0.025-0.275-0.034c-0.199-0.024-0.4-0.042-0.604-0.058
	c-0.087-0.008-0.172-0.015-0.257-0.02c-0.286-0.017-0.574-0.027-0.865-0.027c-0.285,0-0.571,0.011-0.854,0.027
	C344.041,108.416,343.955,108.423,343.869,108.431z"/>
<path fill="#FFFFFF" stroke="#B081B9" stroke-width="2" stroke-linecap="round" stroke-linejoin="round" stroke-miterlimit="10" d="
	M281.132,170.956c-8.193,0-14.836,6.644-14.836,14.835v1.945v1.681v0.265v1.68v0.262v1.682v1.944
	c0,8.193,6.643,14.836,14.836,14.836c8.193,0,14.835-6.643,14.835-14.836v-1.944v-1.682v-0.262v-1.68v-0.265v-1.681v-1.945
	C295.967,177.6,289.325,170.956,281.132,170.956z"/>
<path fill="#EFE6F1" stroke="#B081B9" stroke-width="2" stroke-linecap="round" stroke-linejoin="round" stroke-miterlimit="10" d="
	M281.132,170.956c-8.193,0-14.836,6.644-14.836,14.835v1.917c2.595-0.878,4.891-2.237,6.72-3.946
	c3.32,3.098,8.159,5.057,13.551,5.057c3.44,0,6.659-0.797,9.399-2.18v-0.848C295.967,177.6,289.325,170.956,281.132,170.956z"/>
<g>
	<path fill="#B081B9" d="M263.614,136.628l-11.755-5.581c-1.324-0.625-2.126-1.604-2.126-2.963v-0.348
		c0-1.36,0.802-2.338,2.126-2.966l11.755-5.58c0.418-0.21,0.802-0.35,1.291-0.35c1.116-0.033,2.127,0.942,2.127,2.199
		c0,1.01-0.559,1.708-1.465,2.126l-10.533,4.709l10.533,4.708c0.907,0.418,1.465,1.221,1.465,2.197c0,1.291-1.011,2.197-2.302,2.163
		C264.346,136.942,263.962,136.803,263.614,136.628z"/>
	<path fill="#B081B9" d="M270.236,141.86l13.638-28.496c0.383-0.802,1.009-1.22,1.847-1.22c1.115,0,2.059,0.943,2.059,1.987
		c0,0.384-0.14,0.768-0.243,1.013l-13.638,28.495c-0.384,0.802-1.011,1.22-1.849,1.22c-1.117,0-2.058-0.942-2.058-1.988
		C269.992,142.487,270.131,142.106,270.236,141.86z"/>
	<path fill="#B081B9" d="M294.649,119.19l11.751,5.58c1.324,0.628,2.126,1.606,2.126,2.966v0.348c0,1.358-0.802,2.338-2.126,2.963
		l-11.751,5.581c-0.423,0.211-0.806,0.349-1.292,0.349c-1.117,0.033-2.128-0.941-2.128-2.197c0-1.011,0.557-1.708,1.463-2.127
		l10.535-4.709l-10.535-4.709c-0.906-0.417-1.463-1.219-1.463-2.195c0-1.292,1.011-2.199,2.302-2.164
		C293.914,118.875,294.298,119.014,294.649,119.19z"/>
</g>
<path fill="#EFE6F1" stroke="#B081B9" stroke-width="2" stroke-linecap="round" stroke-linejoin="round" stroke-miterlimit="10" d="
	M310.254,63.191c0,16.476-13.357,29.833-29.832,29.833s-29.831-13.358-29.831-29.833c0-16.474,13.356-29.83,29.831-29.83
	S310.254,46.717,310.254,63.191z"/>
<path fill="#EFE6F1" stroke="#B081B9" stroke-width="2" stroke-linecap="round" stroke-linejoin="round" stroke-miterlimit="10" d="
	M298.959,78.859V58.754c0-2.801-2.271-5.073-5.071-5.073s-5.073,2.272-5.073,5.073v23.812v0.932v7.015
	c0,0.652,0.529,1.182,1.182,1.182s1.18-0.53,1.18-1.182v2.921c0,0.962,0.779,1.743,1.74,1.743c0.963,0,1.743-0.78,1.743-1.743
	v-4.828c0,1.187,0.962,2.15,2.15,2.15s2.149-0.963,2.149-2.15V78.859L298.959,78.859z"/>
<path fill="#B081B9" stroke="#B081B9" stroke-width="2" stroke-linecap="round" stroke-linejoin="round" stroke-miterlimit="10" d="
	M293.888,58.366c0,0.912-0.738,1.647-1.647,1.647l0,0c-0.91,0-1.649-0.736-1.649-1.647v-4.418c0-0.912,0.739-1.649,1.649-1.649l0,0
	c0.909,0,1.647,0.737,1.647,1.649V58.366z"/>
<path fill="#FFFFFF" stroke="#B081B9" stroke-width="2" stroke-linecap="round" stroke-linejoin="round" stroke-miterlimit="10" d="
	M278.333,45.078c-7.739,0-14.014,6.272-14.014,14.013v1.835v1.589v0.249v1.585v0.249v1.588v1.839
	c0,7.739,6.274,14.011,14.014,14.011c7.74,0,14.014-6.272,14.014-14.011v-1.839v-1.588V64.35v-1.585v-0.249v-1.589v-1.835
	C292.347,51.35,286.073,45.078,278.333,45.078z"/>
<path fill="#EFE6F1" stroke="#B081B9" stroke-width="2" stroke-linecap="round" stroke-linejoin="round" stroke-miterlimit="10" d="
	M292.347,59.091c0-7.741-6.273-14.013-14.014-14.013c-7.739,0-14.014,6.272-14.014,14.013v1.835v0.152
	c0.002,0,0.004-0.002,0.005-0.003c0,0.053-0.005,0.107-0.005,0.16v0.06c0.538,0.238,1.129,0.375,1.754,0.375
	c2.405,0,4.354-1.95,4.354-4.354c0,2.404,1.95,4.354,4.355,4.354c2.404,0,4.354-1.95,4.354-4.354c0,2.404,1.95,4.354,4.354,4.354
	c2.404,0,4.354-1.95,4.354-4.354c0,2.404,1.952,4.354,4.354,4.354c0.052,0,0.099-0.008,0.149-0.011v-0.423c0-0.001,0-0.003,0-0.005
	v-0.304V59.091z"/>
</svg>
