<?xml version="1.0" encoding="utf-8"?>
<!-- Generator: Adobe Illustrator 16.0.4, SVG Export Plug-In . SVG Version: 6.00 Build 0)  -->
<!DOCTYPE svg PUBLIC "-//W3C//DTD SVG 1.1//EN" "http://www.w3.org/Graphics/SVG/1.1/DTD/svg11.dtd">
<svg version="1.1" id="Layer_1" xmlns="http://www.w3.org/2000/svg" xmlns:xlink="http://www.w3.org/1999/xlink" x="0px" y="0px"
	 width="111.611px" height="92px" viewBox="0 0 111.611 92" enable-background="new 0 0 111.611 92" xml:space="preserve">
<path fill="none" stroke="#B081B9" stroke-width="2" stroke-linecap="round" stroke-linejoin="round" stroke-miterlimit="10" d="
	M98.257,42.491c-4.215,0-9.281,2.135-11.281,5.372l1.524-22.68v-0.4c0-1.206-1.346-1.783-2.552-1.783H61.434
	c3.236-2.149,5.372-5.824,5.372-10c0-6.627-5.373-12-12-12s-12,5.373-12,12c0,4.176,2.136,7.851,5.372,10H38.71H22.007
	c-1.206,0-1.507,0.577-1.507,1.783L21.917,43.5v2.641C19.862,44.492,15.84,43,13,43C6.373,43,1,48.373,1,55s5.373,12,12,12
	c2.84,0,7.003-0.992,9.058-2.641v1.967v2.182L20.5,88.724C20.5,89.93,20.802,91,22.007,91h15.931V80.656v-1.961v-1.959
	c0-5.634,4.567-10.2,10.2-10.2h2.382c-2.04-1.363-3.384-3.684-3.384-6.318c0-4.196,3.406-7.598,7.61-7.598
	c4.205,0,7.61,3.402,7.61,7.598c0,2.635-1.344,4.955-3.384,6.318h2.38c5.634,0,10.201,4.566,10.201,10.2v1.959v1.961V91h5.057h5.233
	h4.104c1.103,0,1.552-0.912,2.552-1.975l-1.893-27.419c2,3.252,7.453,5.421,11.669,5.421c6.791,0,12.335-5.471,12.335-12.259
	C110.611,47.977,105.048,42.491,98.257,42.491z"/>
</svg>
