<?xml version="1.0" encoding="utf-8"?>
<!-- Generator: Adobe Illustrator 16.0.4, SVG Export Plug-In . SVG Version: 6.00 Build 0)  -->
<!DOCTYPE svg PUBLIC "-//W3C//DTD SVG 1.1//EN" "http://www.w3.org/Graphics/SVG/1.1/DTD/svg11.dtd">
<svg version="1.1" id="Layer_1" xmlns="http://www.w3.org/2000/svg" xmlns:xlink="http://www.w3.org/1999/xlink" x="0px" y="0px"
	 width="112.391px" height="63.223px" viewBox="0 0 112.391 63.223" enable-background="new 0 0 112.391 63.223"
	 xml:space="preserve">
<g>
	<path fill="none" stroke="#B081B9" stroke-width="2" stroke-linecap="round" stroke-linejoin="round" stroke-miterlimit="10" d="
		M33.343,17.645c0-2.351-1.894-4.178-3.982-4.112c-0.913,0-1.63,0.261-2.415,0.652L4.966,24.627C2.486,25.803,1,27.63,1,30.175
		v0.654c0,2.546,1.486,4.372,3.966,5.548l21.987,10.442c0.653,0.325,1.367,0.588,2.086,0.588c2.414,0.064,4.305-1.632,4.305-4.048
		c0-1.827-1.045-3.328-2.741-4.111l-19.712-8.812l19.711-8.811C32.299,20.842,33.343,19.537,33.343,17.645z"/>
	<path fill="none" stroke="#B081B9" stroke-width="2" stroke-linecap="round" stroke-linejoin="round" stroke-miterlimit="10" d="
		M68.328,1c-1.566,0-2.742,0.784-3.46,2.285l-25.52,53.325c-0.196,0.455-0.458,1.174-0.458,1.893c0,1.957,1.762,3.721,3.852,3.721
		c1.566,0,2.742-0.783,3.459-2.285L71.722,6.614c0.195-0.458,0.456-1.175,0.456-1.893C72.178,2.763,70.416,1,68.328,1z"/>
	<path fill="none" stroke="#B081B9" stroke-width="2" stroke-linecap="round" stroke-linejoin="round" stroke-miterlimit="10" d="
		M107.221,24.627l-22.09-10.443c-0.651-0.325-1.418-0.587-2.135-0.587c-2.415-0.065-4.332,1.633-4.332,4.047
		c0,1.827,1.033,3.328,2.73,4.112l19.703,8.812l-19.713,8.81c-1.697,0.784-2.743,2.09-2.743,3.981c0,2.352,1.894,4.178,3.98,4.112
		c0.914,0,1.632-0.261,2.414-0.652l22.185-10.442c2.48-1.176,4.17-3.002,4.17-5.548v-0.654
		C111.391,27.63,109.701,25.803,107.221,24.627z"/>
</g>
</svg>
