<?xml version="1.0" encoding="utf-8"?>
<!-- Generator: Adobe Illustrator 16.0.4, SVG Export Plug-In . SVG Version: 6.00 Build 0)  -->
<!DOCTYPE svg PUBLIC "-//W3C//DTD SVG 1.1//EN" "http://www.w3.org/Graphics/SVG/1.1/DTD/svg11.dtd">
<svg version="1.1" id="Layer_1" xmlns="http://www.w3.org/2000/svg" xmlns:xlink="http://www.w3.org/1999/xlink" x="0px" y="0px"
	 width="87.552px" height="91.558px" viewBox="0 0 87.552 91.558" enable-background="new 0 0 87.552 91.558" xml:space="preserve">
<g>
	<g>
		<path fill="none" stroke="#B081B9" stroke-width="2" stroke-linecap="round" stroke-linejoin="round" stroke-miterlimit="10" d="
			M48.115,85.471l-8.961-5.084l5.361-8.801l0.572-0.938c-8.618,0.335-17.245-3.462-22.754-10.923
			c-5.994-8.118-6.757-18.49-2.894-27.084l4.89,3.501l-1.526-10.19l-1.526-10.19l-10.14,1.844L1,19.449l5.356,3.83
			c-7.671,14.162-7.006,32.071,3.192,45.884C19.098,82.098,34.538,88.1,49.43,86.218L48.115,85.471z"/>
		<path fill="none" stroke="#B081B9" stroke-width="2" stroke-linecap="round" stroke-linejoin="round" stroke-miterlimit="10" d="
			M55.658,85.104c4.732-1.377,9.3-3.592,13.493-6.688C87.051,65.201,91.69,40.697,80.502,21.99l-0.064,0.471l-1.362,10.213
			l-10.167-1.679l-1.721-0.286c6.606,11.692,3.598,26.743-7.477,34.922c-2.506,1.848-5.228,3.197-8.044,4.068l-1.79-6.912
			l-5.361,8.799l-5.361,8.801l8.961,5.084l8.959,5.087L55.658,85.104z"/>
		<path fill="none" stroke="#B081B9" stroke-width="2" stroke-linecap="round" stroke-linejoin="round" stroke-miterlimit="10" d="
			M11.138,17.604l10.14-1.843l1.526,10.19l0.127,0.851c1.396-1.706,3.021-3.268,4.876-4.637c11.207-8.272,26.701-6.581,35.895,3.479
			l-4.959,3.67l10.166,1.681l10.167,1.679l1.362-10.213l1.366-10.213l-5.288,3.911C62.067-0.934,36.633-4.107,18.366,9.38
			c-3.343,2.469-6.225,5.333-8.625,8.479L11.138,17.604z"/>
		<path fill="none" stroke="#B081B9" stroke-width="2" stroke-linecap="round" stroke-linejoin="round" stroke-miterlimit="10" d="
			M33.531,68.547c-4.316-1.815-8.214-4.782-11.197-8.822c-5.994-8.118-6.757-18.49-2.894-27.084l4.89,3.501l-1.526-10.19
			l-1.526-10.19l-10.14,1.844L1,19.449l5.356,3.83c-7.671,14.162-7.006,32.071,3.192,45.884C14.2,75.466,20.25,80.122,26.956,83.021
			"/>
	</g>
</g>
</svg>
