<?xml version="1.0" encoding="utf-8"?>
<!-- Generator: Adobe Illustrator 16.0.4, SVG Export Plug-In . SVG Version: 6.00 Build 0)  -->
<!DOCTYPE svg PUBLIC "-//W3C//DTD SVG 1.1//EN" "http://www.w3.org/Graphics/SVG/1.1/DTD/svg11.dtd">
<svg version="1.1" id="Layer_1" xmlns="http://www.w3.org/2000/svg" xmlns:xlink="http://www.w3.org/1999/xlink" x="0px" y="0px"
	 width="137.786px" height="137.786px" viewBox="4.978 7.337 137.786 137.786" enable-background="new 4.978 7.337 137.786 137.786"
	 xml:space="preserve">
<circle fill="none" stroke="#0096D6" stroke-width="2" stroke-linecap="round" stroke-linejoin="round" stroke-miterlimit="10" cx="73.871" cy="76.23" r="67.893"/>
<g>
	
		<path fill="#FFFFFF" stroke="#B081B9" stroke-width="2" stroke-linecap="round" stroke-linejoin="round" stroke-miterlimit="10" d="
		M49.976,52.994c0,1.569-1.271,2.84-2.841,2.84h-0.214c-1.57,0-2.842-1.271-2.842-2.84V40.328c0-1.569,1.272-2.841,2.842-2.841
		h0.214c1.57,0,2.841,1.272,2.841,2.841V52.994z"/>
	
		<path fill="#FFFFFF" stroke="#B081B9" stroke-width="2" stroke-linecap="round" stroke-linejoin="round" stroke-miterlimit="10" d="
		M105.021,52.994c0,1.569-1.272,2.84-2.842,2.84h-0.215c-1.568,0-2.841-1.271-2.841-2.84V40.328c0-1.569,1.272-2.841,2.841-2.841
		h0.215c1.569,0,2.842,1.272,2.842,2.841V52.994z"/>
	
		<path fill="#FFFFFF" stroke="#B081B9" stroke-width="2" stroke-linecap="round" stroke-linejoin="round" stroke-miterlimit="10" d="
		M49.976,52.994c0,1.569-1.271,2.84-2.841,2.84h-0.214c-1.57,0-2.842-1.271-2.842-2.84V40.328c0-1.569,1.272-2.841,2.842-2.841
		h0.214c1.57,0,2.841,1.272,2.841,2.841V52.994z"/>
	<path fill="none" stroke="#B081B9" stroke-width="2" stroke-linecap="round" stroke-linejoin="round" stroke-miterlimit="10" d="
		M114.143,46.661h-9.121v6.728c0,1.57-1.379,2.841-2.949,2.841c-1.569,0-2.949-1.271-2.949-2.841v-6.728H49.976v6.728
		c0,1.57-1.378,2.841-2.948,2.841c-1.57,0-2.949-1.271-2.949-2.841v-6.728h-9.583c-1.129,0-2.212,1.25-2.212,2.439v61.054
		c0,1.189,1.083,2.035,2.212,2.035h79.646c1.129,0,2.019-0.846,2.019-2.035V49.1C116.161,47.911,115.271,46.661,114.143,46.661z"/>
	<path fill="none" stroke="#B081B9" stroke-width="2" stroke-linecap="round" stroke-linejoin="round" stroke-miterlimit="10" d="
		M114.143,46.661h-9.121v6.728c0,1.57-1.379,2.841-2.949,2.841c-1.569,0-2.949-1.271-2.949-2.841v-6.728H49.976v6.728
		c0,1.57-1.378,2.841-2.948,2.841c-1.57,0-2.949-1.271-2.949-2.841v-6.728h-9.583c-1.129,0-2.212,1.202-2.212,2.333v14.049h83.877
		v-14.05C116.161,47.863,115.271,46.661,114.143,46.661z"/>
	
		<line fill="none" stroke="#B081B9" stroke-width="2" stroke-linecap="round" stroke-linejoin="round" stroke-miterlimit="10" x1="49.321" y1="63.042" x2="49.321" y2="112.189"/>
	
		<line fill="none" stroke="#B081B9" stroke-width="2" stroke-linecap="round" stroke-linejoin="round" stroke-miterlimit="10" x1="66.359" y1="63.042" x2="66.359" y2="112.189"/>
	
		<line fill="none" stroke="#B081B9" stroke-width="2" stroke-linecap="round" stroke-linejoin="round" stroke-miterlimit="10" x1="83.396" y1="63.042" x2="83.396" y2="111.534"/>
	
		<line fill="none" stroke="#B081B9" stroke-width="2" stroke-linecap="round" stroke-linejoin="round" stroke-miterlimit="10" x1="99.779" y1="63.042" x2="99.779" y2="111.534"/>
	
		<line fill="none" stroke="#B081B9" stroke-width="2" stroke-linecap="round" stroke-linejoin="round" stroke-miterlimit="10" x1="32.284" y1="79.425" x2="116.161" y2="79.425"/>
	
		<line fill="none" stroke="#B081B9" stroke-width="2" stroke-linecap="round" stroke-linejoin="round" stroke-miterlimit="10" x1="32.284" y1="95.807" x2="116.161" y2="95.807"/>
	<rect x="49.321" y="80.08" fill="#B081B9" stroke="#B081B9" stroke-miterlimit="10" width="17.038" height="15.727"/>
	<rect x="83.359" y="63.042" fill="#B081B9" stroke="#B081B9" stroke-miterlimit="10" width="16.382" height="17.038"/>
</g>
</svg>
