<?xml version="1.0" encoding="utf-8"?>
<!-- Generator: Adobe Illustrator 16.0.4, SVG Export Plug-In . SVG Version: 6.00 Build 0)  -->
<!DOCTYPE svg PUBLIC "-//W3C//DTD SVG 1.1//EN" "http://www.w3.org/Graphics/SVG/1.1/DTD/svg11.dtd">
<svg version="1.1" id="Layer_1" xmlns="http://www.w3.org/2000/svg" xmlns:xlink="http://www.w3.org/1999/xlink" x="0px" y="0px"
	 width="51.662px" height="113.467px" viewBox="0 0 51.662 113.467" enable-background="new 0 0 51.662 113.467"
	 xml:space="preserve">
<g>
	<path fill="none" stroke="#B081B9" stroke-width="2" stroke-linecap="round" stroke-linejoin="round" stroke-miterlimit="10" d="
		M23.041,60.287l9.838,0.033l0.069-20.497l0.001-0.404l-2.601-7.664l-4.586-0.016l-2.652,7.645l0.048,0.014
		c-0.029,0.125-0.048,0.257-0.048,0.39L23.041,60.287z"/>
	<path fill="none" stroke="#B081B9" stroke-width="2" stroke-linecap="round" stroke-linejoin="round" stroke-miterlimit="10" d="
		M27.2,27.559l-0.099,0.295l0,0l-1.318,3.904l4.584-0.02l-1.352-3.89c-0.001-0.001-0.001-0.001-0.003-0.003
		C28.174,25.43,27.458,26.875,27.2,27.559z"/>
	<path fill="none" stroke="#B081B9" stroke-width="2" stroke-linecap="round" stroke-linejoin="round" stroke-miterlimit="10" d="
		M33.032,9.646c0.002-0.322,0.259-0.576,0.581-0.576l8.909,0.027c0.32,0.003,0.578,0.26,0.574,0.58L43.02,33.672
		c-0.001,0.316-0.262,0.573-0.582,0.573l-8.91-0.027c-0.318-0.004-0.576-0.261-0.573-0.58L33.032,9.646z"/>
	<path fill="none" stroke="#B081B9" stroke-width="2" stroke-linecap="round" stroke-linejoin="round" stroke-miterlimit="10" d="
		M42.438,34.245l-8.91-0.027c-0.274-0.004-0.502-0.196-0.559-0.45l-0.09,26.551l10.051,0.034l0.09-26.681
		C43.018,33.988,42.758,34.245,42.438,34.245z"/>
	<path fill="none" stroke="#B081B9" stroke-width="2" stroke-linecap="round" stroke-linejoin="round" stroke-miterlimit="10" d="
		M23.143,60.398l0.197-58.77c0-0.318-0.259-0.579-0.576-0.579L7.865,1c-0.32-0.003-0.577,0.256-0.579,0.576L7.09,60.345
		L23.143,60.398z"/>
	<g>
		
			<line fill="none" stroke="#B081B9" stroke-width="2" stroke-linecap="round" stroke-linejoin="round" stroke-miterlimit="10" x1="7.931" y1="8.983" x2="15.214" y2="9.007"/>
		
			<line fill="none" stroke="#B081B9" stroke-width="2" stroke-linecap="round" stroke-linejoin="round" stroke-miterlimit="10" x1="8.152" y1="17.268" x2="12.767" y2="17.282"/>
		
			<line fill="none" stroke="#B081B9" stroke-width="2" stroke-linecap="round" stroke-linejoin="round" stroke-miterlimit="10" x1="8.152" y1="33.672" x2="12.767" y2="33.688"/>
		
			<line fill="none" stroke="#B081B9" stroke-width="2" stroke-linecap="round" stroke-linejoin="round" stroke-miterlimit="10" x1="8.152" y1="51.921" x2="12.767" y2="51.937"/>
		
			<line fill="none" stroke="#B081B9" stroke-width="2" stroke-linecap="round" stroke-linejoin="round" stroke-miterlimit="10" x1="7.877" y1="25.262" x2="15.161" y2="25.283"/>
		
			<line fill="none" stroke="#B081B9" stroke-width="2" stroke-linecap="round" stroke-linejoin="round" stroke-miterlimit="10" x1="7.877" y1="42.854" x2="15.161" y2="42.875"/>
	</g>
	<path fill="none" stroke="#B081B9" stroke-width="2" stroke-linecap="round" stroke-linejoin="round" stroke-miterlimit="10" d="
		M50.662,64.607c-0.014,2.214-1.816,4.001-4.031,3.993L4.993,68.425C2.78,68.414,0.989,66.611,1,64.396l0,0
		c0.011-2.218,1.813-4.006,4.031-3.998l41.636,0.178C48.879,60.589,50.673,62.39,50.662,64.607L50.662,64.607z"/>
	<path fill="none" stroke="#B081B9" stroke-width="2" stroke-linecap="round" stroke-linejoin="round" stroke-miterlimit="10" d="
		M46.631,68.6L4.993,68.425c-0.676-0.002-1.304-0.189-1.863-0.488c-0.003,0.068-0.018,0.132-0.018,0.201v40.693
		c0,2.01,1.628,3.637,3.638,3.637h38.161c2.009,0,3.638-1.626,3.638-3.637V68.138c0-0.012-0.003-0.023-0.003-0.033
		C47.975,68.411,47.329,68.603,46.631,68.6z"/>
	
		<line fill="none" stroke="#B081B9" stroke-width="2" stroke-linecap="round" stroke-linejoin="round" stroke-miterlimit="10" x1="3.918" y1="75.125" x2="29.752" y2="75.125"/>
	
		<line fill="none" stroke="#B081B9" stroke-width="2" stroke-linecap="round" stroke-linejoin="round" stroke-miterlimit="10" x1="3.918" y1="82.038" x2="24.067" y2="82.038"/>
	
		<line fill="none" stroke="#B081B9" stroke-width="2" stroke-linecap="round" stroke-linejoin="round" stroke-miterlimit="10" x1="32.878" y1="90.798" x2="48.549" y2="90.798"/>
	
		<line fill="none" stroke="#B081B9" stroke-width="2" stroke-linecap="round" stroke-linejoin="round" stroke-miterlimit="10" x1="40.714" y1="99.219" x2="48.549" y2="99.219"/>
	
		<line fill="none" stroke="#B081B9" stroke-width="2" stroke-linecap="round" stroke-linejoin="round" stroke-miterlimit="10" x1="3.918" y1="104.147" x2="31.14" y2="104.147"/>
	<path fill="none" stroke="#B081B9" stroke-width="2" stroke-linecap="round" stroke-linejoin="round" stroke-miterlimit="10" d="
		M41.554,9.096C41.572,8.978,41.6,8.867,41.6,8.744l0.011-2.958c0.004-1.28-1.025-2.317-2.304-2.322l-2.455-0.008
		c-1.277-0.003-2.316,1.027-2.317,2.305l-0.011,2.958c-0.001,0.121,0.027,0.235,0.044,0.354L41.554,9.096z"/>
	
		<polygon fill="none" stroke="#B081B9" stroke-width="2" stroke-linecap="round" stroke-linejoin="round" stroke-miterlimit="10" points="
		30.348,31.755 28.064,31.749 25.783,31.758 25.789,31.739 25.762,31.739 23.126,39.339 32.935,39.372 	"/>
</g>
</svg>
