<?xml version="1.0" encoding="utf-8"?>
<!-- Generator: Adobe Illustrator 16.0.4, SVG Export Plug-In . SVG Version: 6.00 Build 0)  -->
<!DOCTYPE svg PUBLIC "-//W3C//DTD SVG 1.1//EN" "http://www.w3.org/Graphics/SVG/1.1/DTD/svg11.dtd">
<svg version="1.1" id="Layer_1" xmlns="http://www.w3.org/2000/svg" xmlns:xlink="http://www.w3.org/1999/xlink" x="0px" y="0px"
	 width="559px" height="268.255px" viewBox="0 0 559 268.255" enable-background="new 0 0 559 268.255" xml:space="preserve">
<path fill-rule="evenodd" clip-rule="evenodd" fill="#FFFFFF" stroke="#0096D6" stroke-width="2" stroke-linecap="round" stroke-linejoin="round" stroke-miterlimit="10" d="
	M431.049,5.505c0-2.488-2.019-4.505-4.505-4.505H136.519c-2.485,0-4.504,2.017-4.504,4.505v179.852c0,2.488,2.019,4.506,4.504,4.506
	h290.025c2.486,0,4.505-2.018,4.505-4.506V5.505z"/>
<path fill-rule="evenodd" clip-rule="evenodd" fill="#FFFFFF" stroke="#0096D6" stroke-width="2" stroke-linecap="round" stroke-linejoin="round" stroke-miterlimit="10" d="
	M371.375,238.392c0,3.782-3.069,6.558-6.849,6.558H198.034c-3.784,0-6.85-2.775-6.85-6.558l0,0c0-3.78,3.066-6.559,6.85-6.559
	h166.492C368.305,231.833,371.375,234.611,371.375,238.392L371.375,238.392z"/>
<path fill-rule="evenodd" clip-rule="evenodd" fill="#FFFFFF" stroke="#0096D6" stroke-width="2" stroke-linecap="round" stroke-linejoin="round" stroke-miterlimit="10" d="
	M323.937,189.863h-85.32c-3.44,31.479-16.1,41.97-16.1,41.97h57.206h0.613h1.882h0.61h57.213
	C340.042,231.833,327.375,221.342,323.937,189.863z"/>
<g opacity="0.7">
	
		<rect x="24" y="6.167" fill="#8ADCFF" stroke="#0096D6" stroke-width="2" stroke-linecap="round" stroke-linejoin="round" stroke-miterlimit="10" width="33" height="37"/>
	
		<rect x="81" y="6.167" fill="none" stroke="#0096D6" stroke-width="2" stroke-linecap="round" stroke-linejoin="round" stroke-miterlimit="10" width="33" height="37"/>
	
		<rect x="448" y="6.167" fill="#8ADCFF" stroke="#0096D6" stroke-width="2" stroke-linecap="round" stroke-linejoin="round" stroke-miterlimit="10" width="36" height="37"/>
	
		<rect x="502" y="6.167" fill="none" stroke="#0096D6" stroke-width="2" stroke-linecap="round" stroke-linejoin="round" stroke-miterlimit="10" width="37" height="37"/>
	
		<rect x="24" y="64.167" fill="none" stroke="#0096D6" stroke-width="2" stroke-linecap="round" stroke-linejoin="round" stroke-miterlimit="10" width="33" height="34"/>
	
		<rect x="81" y="64.167" fill="#D6F3FF" stroke="#0096D6" stroke-width="2" stroke-linecap="round" stroke-linejoin="round" stroke-miterlimit="10" width="33" height="34"/>
	
		<rect x="448" y="64.167" fill="#8ADCFF" stroke="#0096D6" stroke-width="2" stroke-linecap="round" stroke-linejoin="round" stroke-miterlimit="10" width="36" height="34"/>
	
		<rect x="502" y="64.167" fill="#D6F3FF" stroke="#0096D6" stroke-width="2" stroke-linecap="round" stroke-linejoin="round" stroke-miterlimit="10" width="37" height="34"/>
	
		<line fill="none" stroke="#0096D6" stroke-width="2" stroke-linecap="round" stroke-linejoin="round" stroke-miterlimit="10" x1="30" y1="24.167" x2="49" y2="24.167"/>
	
		<line fill="none" stroke="#0096D6" stroke-width="2" stroke-linecap="round" stroke-linejoin="round" stroke-miterlimit="10" x1="86" y1="21.167" x2="98" y2="21.167"/>
	
		<line fill="none" stroke="#0096D6" stroke-width="2" stroke-linecap="round" stroke-linejoin="round" stroke-miterlimit="10" x1="103" y1="21.167" x2="108" y2="21.167"/>
	
		<line fill="none" stroke="#0096D6" stroke-width="2" stroke-linecap="round" stroke-linejoin="round" stroke-miterlimit="10" x1="86" y1="28.167" x2="104" y2="28.167"/>
	
		<line fill="none" stroke="#0096D6" stroke-width="2" stroke-linecap="round" stroke-linejoin="round" stroke-miterlimit="10" x1="455" y1="24.167" x2="469" y2="24.167"/>
	
		<line fill="none" stroke="#0096D6" stroke-width="2" stroke-linecap="round" stroke-linejoin="round" stroke-miterlimit="10" x1="476" y1="24.167" x2="478" y2="24.167"/>
	
		<line fill="none" stroke="#0096D6" stroke-width="2" stroke-linecap="round" stroke-linejoin="round" stroke-miterlimit="10" x1="511" y1="24.167" x2="517" y2="24.167"/>
	
		<line fill="none" stroke="#0096D6" stroke-width="2" stroke-linecap="round" stroke-linejoin="round" stroke-miterlimit="10" x1="522" y1="24.167" x2="533" y2="24.167"/>
	
		<rect x="24" y="119.167" fill="none" stroke="#0096D6" stroke-width="2" stroke-linecap="round" stroke-linejoin="round" stroke-miterlimit="10" width="33" height="35"/>
	
		<rect x="81" y="119.167" fill="#8ADCFF" stroke="#0096D6" stroke-width="2" stroke-linecap="round" stroke-linejoin="round" stroke-miterlimit="10" width="33" height="35"/>
	
		<rect x="448" y="119.167" fill="none" stroke="#0096D6" stroke-width="2" stroke-linecap="round" stroke-linejoin="round" stroke-miterlimit="10" width="36" height="35"/>
	
		<rect x="502" y="119.167" fill="none" stroke="#0096D6" stroke-width="2" stroke-linecap="round" stroke-linejoin="round" stroke-miterlimit="10" width="37" height="35"/>
	
		<line fill="none" stroke="#0096D6" stroke-width="2" stroke-linecap="round" stroke-linejoin="round" stroke-miterlimit="10" x1="30" y1="137.167" x2="49" y2="137.167"/>
	
		<line fill="none" stroke="#0096D6" stroke-width="2" stroke-linecap="round" stroke-linejoin="round" stroke-miterlimit="10" x1="86" y1="132.167" x2="98" y2="132.167"/>
	
		<line fill="none" stroke="#0096D6" stroke-width="2" stroke-linecap="round" stroke-linejoin="round" stroke-miterlimit="10" x1="103" y1="132.167" x2="108" y2="132.167"/>
	
		<line fill="none" stroke="#0096D6" stroke-width="2" stroke-linecap="round" stroke-linejoin="round" stroke-miterlimit="10" x1="86" y1="140.167" x2="104" y2="140.167"/>
	
		<line fill="none" stroke="#0096D6" stroke-width="2" stroke-linecap="round" stroke-linejoin="round" stroke-miterlimit="10" x1="455" y1="137.167" x2="469" y2="137.167"/>
	
		<line fill="none" stroke="#0096D6" stroke-width="2" stroke-linecap="round" stroke-linejoin="round" stroke-miterlimit="10" x1="476" y1="137.167" x2="478" y2="137.167"/>
	
		<line fill="none" stroke="#0096D6" stroke-width="2" stroke-linecap="round" stroke-linejoin="round" stroke-miterlimit="10" x1="511" y1="137.167" x2="517" y2="137.167"/>
	
		<line fill="none" stroke="#0096D6" stroke-width="2" stroke-linecap="round" stroke-linejoin="round" stroke-miterlimit="10" x1="522" y1="137.167" x2="533" y2="137.167"/>
	
		<line fill="none" stroke="#0096D6" stroke-width="2" stroke-linecap="round" stroke-linejoin="round" stroke-miterlimit="10" x1="30" y1="76.167" x2="51" y2="76.167"/>
	
		<line fill="none" stroke="#0096D6" stroke-width="2" stroke-linecap="round" stroke-linejoin="round" stroke-miterlimit="10" x1="47" y1="85.167" x2="51" y2="85.167"/>
	
		<line fill="none" stroke="#0096D6" stroke-width="2" stroke-linecap="round" stroke-linejoin="round" stroke-miterlimit="10" x1="30" y1="85.167" x2="38" y2="85.167"/>
	
		<line fill="none" stroke="#0096D6" stroke-width="2" stroke-linecap="round" stroke-linejoin="round" stroke-miterlimit="10" x1="86" y1="81.167" x2="109" y2="81.167"/>
	
		<line fill="none" stroke="#0096D6" stroke-width="2" stroke-linecap="round" stroke-linejoin="round" stroke-miterlimit="10" x1="473" y1="81.167" x2="478" y2="81.167"/>
	
		<line fill="none" stroke="#0096D6" stroke-width="2" stroke-linecap="round" stroke-linejoin="round" stroke-miterlimit="10" x1="457" y1="81.167" x2="467" y2="81.167"/>
	
		<line fill="none" stroke="#0096D6" stroke-width="2" stroke-linecap="round" stroke-linejoin="round" stroke-miterlimit="10" x1="511" y1="76.167" x2="531" y2="76.167"/>
	
		<line fill="none" stroke="#0096D6" stroke-width="2" stroke-linecap="round" stroke-linejoin="round" stroke-miterlimit="10" x1="511" y1="85.167" x2="515" y2="85.167"/>
	
		<line fill="none" stroke="#0096D6" stroke-width="2" stroke-linecap="round" stroke-linejoin="round" stroke-miterlimit="10" x1="520" y1="85.167" x2="531" y2="85.167"/>
</g>
<g>
	<path fill="none" stroke="#0096D6" stroke-width="2" stroke-linecap="round" stroke-linejoin="round" stroke-miterlimit="10" d="
		M41.528,225.108c0.333,23.331,19.34,42.146,42.752,42.146c23.413,0,42.423-18.815,42.756-42.146H41.528z"/>
	<path fill="none" stroke="#0096D6" stroke-width="2" stroke-linecap="round" stroke-linejoin="round" stroke-miterlimit="10" d="
		M41.528,225.108c0.333,23.331,19.34,42.146,42.752,42.146c23.413,0,42.423-18.815,42.756-42.146H41.528z"/>
	
		<line fill="none" stroke="#B081B9" stroke-width="2" stroke-linecap="round" stroke-linejoin="round" stroke-miterlimit="10" x1="68.584" y1="225.108" x2="68.584" y2="238.911"/>
	<path fill="none" stroke="#B081B9" stroke-width="2" stroke-linecap="round" stroke-linejoin="round" stroke-miterlimit="10" d="
		M75.124,255.905c0,1.524-1.238,2.765-2.769,2.765h-7.54c-1.531,0-2.773-1.24-2.773-2.765v-12.224c0-1.53,1.242-2.771,2.773-2.771
		h7.54c1.53,0,2.769,1.24,2.769,2.771V255.905z"/>
	<path fill="none" stroke="#0096D6" stroke-width="2" stroke-linecap="round" stroke-linejoin="round" stroke-miterlimit="10" d="
		M128.428,225.108c-0.46,0-0.914,0.023-1.364,0.065c-0.028,1.871-0.188,3.711-0.45,5.514c0.584-0.123,1.193-0.193,1.814-0.193
		c4.775,0,8.658,3.885,8.658,8.654c0,4.773-3.883,8.657-8.658,8.657c-2.592,0-4.917-1.152-6.506-2.969
		c-0.881,1.625-1.867,3.183-2.941,4.671c2.497,2.282,5.809,3.686,9.447,3.686c7.746,0,14.045-6.3,14.045-14.045
		C142.473,231.406,136.174,225.108,128.428,225.108z"/>
	<g>
		<path fill="#0096D6" d="M69.27,219.423c-0.641,0-1.157-0.516-1.157-1.156v-1.536c0-0.639,0.517-1.152,1.157-1.152
			c0.637,0,1.151,0.514,1.151,1.152v1.536C70.421,218.907,69.907,219.423,69.27,219.423z M69.27,211.728
			c-0.641,0-1.157-0.515-1.157-1.157v-1.539c0-0.633,0.517-1.151,1.157-1.151c0.637,0,1.151,0.519,1.151,1.151v1.539
			C70.421,211.213,69.907,211.728,69.27,211.728z M69.27,204.033c-0.641,0-1.157-0.521-1.157-1.154v-1.539
			c0-0.638,0.517-1.157,1.157-1.157c0.637,0,1.151,0.52,1.151,1.157v1.539C70.421,203.512,69.907,204.033,69.27,204.033z
			 M69.27,196.336c-0.641,0-1.157-0.515-1.157-1.151v-1.539c0-0.638,0.517-1.155,1.157-1.155c0.637,0,1.151,0.518,1.151,1.155v1.539
			C70.421,195.821,69.907,196.336,69.27,196.336z M69.27,188.643c-0.641,0-1.157-0.517-1.157-1.154v-1.54
			c0-0.637,0.517-1.155,1.157-1.155c0.637,0,1.151,0.519,1.151,1.155v1.54C70.421,188.126,69.907,188.643,69.27,188.643z
			 M69.27,180.946c-0.641,0-1.157-0.514-1.157-1.149v-1.542c0-0.638,0.517-1.155,1.157-1.155c0.637,0,1.151,0.518,1.151,1.155v1.542
			C70.421,180.433,69.907,180.946,69.27,180.946z"/>
	</g>
	<g>
		<path fill="#0096D6" d="M84.143,219.423c-0.637,0-1.152-0.516-1.152-1.156v-1.536c0-0.639,0.516-1.152,1.152-1.152
			c0.639,0,1.158,0.514,1.158,1.152v1.536C85.301,218.907,84.782,219.423,84.143,219.423z M84.143,211.728
			c-0.637,0-1.152-0.515-1.152-1.157v-1.539c0-0.633,0.516-1.151,1.152-1.151c0.639,0,1.158,0.519,1.158,1.151v1.539
			C85.301,211.213,84.782,211.728,84.143,211.728z M84.143,204.033c-0.637,0-1.152-0.521-1.152-1.154v-1.539
			c0-0.638,0.516-1.157,1.152-1.157c0.639,0,1.158,0.52,1.158,1.157v1.539C85.301,203.512,84.782,204.033,84.143,204.033z"/>
	</g>
	<g>
		<path fill="#0096D6" d="M98.251,219.423c-0.639,0-1.153-0.516-1.153-1.156v-1.536c0-0.639,0.515-1.152,1.153-1.152
			c0.636,0,1.155,0.514,1.155,1.152v1.536C99.407,218.907,98.887,219.423,98.251,219.423z M98.251,211.728
			c-0.639,0-1.153-0.515-1.153-1.157v-1.539c0-0.633,0.515-1.151,1.153-1.151c0.636,0,1.155,0.519,1.155,1.151v1.539
			C99.407,211.213,98.887,211.728,98.251,211.728z M98.251,204.033c-0.639,0-1.153-0.521-1.153-1.154v-1.539
			c0-0.638,0.515-1.157,1.153-1.157c0.636,0,1.155,0.52,1.155,1.157v1.539C99.407,203.512,98.887,204.033,98.251,204.033z
			 M98.251,196.336c-0.639,0-1.153-0.515-1.153-1.151v-1.539c0-0.638,0.515-1.155,1.153-1.155c0.636,0,1.155,0.518,1.155,1.155
			v1.539C99.407,195.821,98.887,196.336,98.251,196.336z M98.251,188.643c-0.639,0-1.153-0.517-1.153-1.154v-1.54
			c0-0.637,0.515-1.155,1.153-1.155c0.636,0,1.155,0.519,1.155,1.155v1.54C99.407,188.126,98.887,188.643,98.251,188.643z"/>
	</g>
</g>
<path fill-rule="evenodd" clip-rule="evenodd" fill="#EEE3F0" stroke="#0096D6" stroke-width="2" stroke-miterlimit="10" d="
	M143.799,171.298c0,2.098,1.85,3.802,4.132,3.802h267.094c2.286,0,4.137-1.704,4.137-3.802V19.321c0-2.098-1.851-3.803-4.137-3.803
	H147.931c-2.282,0-4.132,1.705-4.132,3.803V171.298z"/>
<circle fill="none" stroke="#B081B9" stroke-width="2" stroke-linecap="round" stroke-linejoin="round" stroke-miterlimit="10" cx="283.492" cy="95.312" r="51.947"/>
<path fill="#EFE6F1" stroke="#B081B9" stroke-width="2" stroke-linecap="round" stroke-linejoin="round" stroke-miterlimit="10" d="
	M254.658,94.084c0,12.866-10.433,23.3-23.297,23.3c-12.869,0-23.299-10.434-23.299-23.3c0-12.867,10.43-23.299,23.299-23.299
	C244.225,70.785,254.658,81.217,254.658,94.084z"/>
<circle fill="#EFE6F1" stroke="#B081B9" stroke-width="2" stroke-linecap="round" stroke-linejoin="round" stroke-miterlimit="10" cx="333.292" cy="94.084" r="23.298"/>
<circle fill="#EFE6F1" stroke="#B081B9" stroke-width="2" stroke-linecap="round" stroke-linejoin="round" stroke-miterlimit="10" cx="284.697" cy="143.865" r="23.299"/>
<path fill="#FFFFFF" stroke="#B081B9" stroke-width="2" stroke-linecap="round" stroke-linejoin="round" stroke-miterlimit="10" d="
	M231.322,79.356c-6.319,0-11.445,5.124-11.445,11.444v1.5v1.297V93.8v1.297V95.3v1.297v1.498c0,6.322,5.126,11.446,11.445,11.446
	c6.32,0,11.443-5.124,11.443-11.446v-1.498V95.3v-0.203V93.8v-0.203V92.3v-1.5C242.765,84.479,237.642,79.356,231.322,79.356z"/>
<path fill="#B081B9" stroke="#B081B9" stroke-width="2" stroke-linecap="round" stroke-linejoin="round" stroke-miterlimit="10" d="
	M242.75,90.249c-0.286-6.062-5.291-10.893-11.429-10.893c-5.454,0-10.014,3.817-11.162,8.928c0.99,1.553,2.724,2.589,4.704,2.589
	c0.732,0,1.427-0.146,2.066-0.401c1.81,2.337,4.642,3.844,7.828,3.844C238.042,94.315,240.953,92.715,242.75,90.249z"/>
<path fill="#EFE6F1" stroke="#B081B9" stroke-width="2" stroke-linecap="round" stroke-linejoin="round" stroke-miterlimit="10" d="
	M306.81,44.303c0,12.868-10.432,23.299-23.299,23.299c-12.864,0-23.298-10.431-23.298-23.299c0-12.867,10.434-23.297,23.298-23.297
	C296.378,21.005,306.81,31.436,306.81,44.303z"/>
<path fill="#EFE6F1" stroke="#B081B9" stroke-width="2" stroke-linecap="round" stroke-linejoin="round" stroke-miterlimit="10" d="
	M297.99,56.539V40.837c0-2.188-1.771-3.962-3.962-3.962c-2.188,0-3.961,1.773-3.961,3.962v18.598v0.728v5.479
	c0,0.509,0.413,0.923,0.922,0.923c0.51,0,0.922-0.414,0.922-0.923v2.281c0,0.751,0.608,1.36,1.359,1.36s1.36-0.609,1.36-1.36v-3.771
	c0,0.927,0.751,1.68,1.679,1.68c0.929,0,1.681-0.752,1.681-1.68V56.539L297.99,56.539z"/>
<path fill="#B081B9" stroke="#B081B9" stroke-width="2" stroke-linecap="round" stroke-linejoin="round" stroke-miterlimit="10" d="
	M294.716,40.533c0,0.712-0.576,1.288-1.285,1.288l0,0c-0.714,0-1.287-0.576-1.287-1.288v-3.451c0-0.711,0.573-1.288,1.287-1.288l0,0
	c0.709,0,1.285,0.576,1.285,1.288V40.533z"/>
<path fill="#FFFFFF" stroke="#B081B9" stroke-width="2" stroke-linecap="round" stroke-linejoin="round" stroke-miterlimit="10" d="
	M281.88,30.154c-6.043,0-10.944,4.901-10.944,10.945v1.434v1.242v0.192v1.24v0.195v1.24v1.434c0,6.046,4.901,10.944,10.944,10.944
	c6.044,0,10.945-4.898,10.945-10.944v-1.434v-1.24v-0.195v-1.24v-0.192v-1.242v-1.434C292.826,35.056,287.924,30.154,281.88,30.154z
	"/>
<path fill="#EFE6F1" stroke="#B081B9" stroke-width="2" stroke-linecap="round" stroke-linejoin="round" stroke-miterlimit="10" d="
	M292.826,41.099c0-6.043-4.901-10.945-10.945-10.945c-6.043,0-10.944,4.901-10.944,10.945v1.434v0.119
	c0-0.001,0.002-0.003,0.002-0.003c0,0.042-0.002,0.083-0.002,0.124v0.048c0.42,0.186,0.879,0.292,1.369,0.292
	c1.875,0,3.4-1.521,3.4-3.4c0,1.879,1.521,3.4,3.4,3.4c1.877,0,3.4-1.521,3.4-3.4c0,1.879,1.522,3.4,3.401,3.4
	c1.877,0,3.398-1.521,3.398-3.4c0,1.879,1.523,3.4,3.403,3.4c0.039,0,0.076-0.005,0.116-0.007v-0.333c0,0,0-0.001,0-0.003v-0.237
	V41.099z"/>
<g opacity="0.5">
	
		<line fill="none" stroke="#0096D6" stroke-width="2" stroke-linecap="round" stroke-linejoin="round" stroke-miterlimit="10" x1="144" y1="241.167" x2="189" y2="241.167"/>
	
		<line fill="none" stroke="#0096D6" stroke-width="2" stroke-linecap="round" stroke-linejoin="round" stroke-miterlimit="10" x1="392" y1="241.167" x2="488" y2="241.167"/>
	
		<line fill="none" stroke="#0096D6" stroke-width="2" stroke-linecap="round" stroke-linejoin="round" stroke-miterlimit="10" x1="381.996" y1="241.167" x2="377.996" y2="241.167"/>
	
		<line fill="none" stroke="#0096D6" stroke-width="2" stroke-linecap="round" stroke-linejoin="round" stroke-miterlimit="10" x1="39.5" y1="241.167" x2="30.75" y2="241.167"/>
	
		<line fill="none" stroke="#0096D6" stroke-width="2" stroke-linecap="round" stroke-linejoin="round" stroke-miterlimit="10" x1="27" y1="241.167" x2="1" y2="241.167"/>
	
		<line fill="none" stroke="#0096D6" stroke-width="2" stroke-linecap="round" stroke-linejoin="round" stroke-miterlimit="10" x1="496" y1="241.167" x2="517" y2="241.167"/>
	
		<line fill="none" stroke="#0096D6" stroke-width="2" stroke-linecap="round" stroke-linejoin="round" stroke-miterlimit="10" x1="523" y1="241.167" x2="558" y2="241.167"/>
</g>
<path fill="#FFFFFF" stroke="#B081B9" stroke-width="2" stroke-linecap="round" stroke-linejoin="round" stroke-miterlimit="10" d="
	M284.067,128.469c-6.399,0-11.587,5.189-11.587,11.587v1.518v1.314v0.207v1.312v0.205v1.312v1.521
	c0,6.396,5.188,11.586,11.587,11.586c6.397,0,11.585-5.189,11.585-11.586v-1.521v-1.312v-0.205v-1.312v-0.207v-1.314v-1.518
	C295.652,133.658,290.464,128.469,284.067,128.469z"/>
<path fill="#EFE6F1" stroke="#B081B9" stroke-width="2" stroke-linecap="round" stroke-linejoin="round" stroke-miterlimit="10" d="
	M284.067,128.469c-6.399,0-11.587,5.189-11.587,11.587v1.499c2.026-0.687,3.817-1.749,5.247-3.083
	c2.591,2.418,6.372,3.947,10.584,3.947c2.688,0,5.202-0.621,7.341-1.702v-0.661C295.652,133.658,290.464,128.469,284.067,128.469z"
	/>
<path fill="#FFFFFF" stroke="#C09BC7" stroke-width="2" stroke-linecap="round" stroke-linejoin="round" stroke-miterlimit="10" d="
	M333.935,79.598c-6.398,0-11.586,5.189-11.586,11.587v1.518v1.314v0.204v1.316v0.202v1.315v1.518
	c0,6.396,5.188,11.586,11.586,11.586c6.397,0,11.586-5.189,11.586-11.586v-1.518V95.74v-0.202v-1.316v-0.204v-1.314v-1.518
	C345.521,84.787,340.333,79.598,333.935,79.598z"/>
<path fill="#B081B9" stroke="#B081B9" stroke-width="2" stroke-linecap="round" stroke-linejoin="round" stroke-miterlimit="10" d="
	M333.065,79.635c-0.155,0.012-0.311,0.024-0.465,0.043c-0.072,0.008-0.146,0.018-0.218,0.029c-0.153,0.02-0.306,0.042-0.457,0.069
	c-0.062,0.011-0.127,0.023-0.192,0.035c-0.18,0.035-0.36,0.074-0.54,0.119c-0.027,0.005-0.057,0.012-0.087,0.019
	c-0.438,0.111-0.867,0.247-1.286,0.406c-0.014,0.005-0.024,0.01-0.04,0.016c-0.2,0.076-0.396,0.158-0.589,0.247
	c-0.01,0.005-0.018,0.008-0.028,0.012c-1.86,0.846-3.456,2.169-4.638,3.81c-0.001,0-0.002-0.002-0.004-0.004
	c-1.366,1.902-2.172,4.231-2.172,6.751v1.518v1.314v0.204v1.316v0.202v1.315v1.518c0,0.193,0.007,0.387,0.015,0.58
	c1.705-0.009,3.083-1.394,3.083-3.1v-6.202c2.436,0.82,5.286,1.3,8.344,1.3c3.253,0,6.28-0.537,8.812-1.453v6.355
	c0,1.646,1.284,2.989,2.905,3.09c0.01-0.189,0.014-0.381,0.014-0.57v-1.518V95.74v-0.202v-1.316v-0.204v-1.314v-1.518
	c0-2.47-0.774-4.76-2.092-6.64c-0.002,0.001-0.004,0.004-0.009,0.006c-1.308-1.867-3.147-3.333-5.303-4.17
	c-0.002-0.001-0.008-0.004-0.012-0.005c-0.628-0.242-1.282-0.433-1.958-0.563c-0.06-0.01-0.114-0.02-0.17-0.031
	c-0.158-0.027-0.318-0.053-0.479-0.074c-0.071-0.011-0.142-0.02-0.217-0.026c-0.154-0.019-0.312-0.032-0.47-0.046
	c-0.068-0.005-0.135-0.012-0.2-0.015c-0.225-0.014-0.449-0.022-0.677-0.022c-0.222,0-0.445,0.008-0.666,0.022
	C333.2,79.624,333.133,79.63,333.065,79.635z"/>
</svg>
