<?xml version="1.0" encoding="utf-8"?>
<!-- Generator: Adobe Illustrator 16.0.4, SVG Export Plug-In . SVG Version: 6.00 Build 0)  -->
<!DOCTYPE svg PUBLIC "-//W3C//DTD SVG 1.1//EN" "http://www.w3.org/Graphics/SVG/1.1/DTD/svg11.dtd">
<svg version="1.1" id="Layer_1" xmlns="http://www.w3.org/2000/svg" xmlns:xlink="http://www.w3.org/1999/xlink" x="0px" y="0px"
	 width="137.786px" height="137.786px" viewBox="0.978 0.337 137.786 137.786" enable-background="new 0.978 0.337 137.786 137.786"
	 xml:space="preserve">
<g>
	
		<polyline fill="none" stroke="#B081B9" stroke-width="2" stroke-linecap="round" stroke-linejoin="round" stroke-miterlimit="10" points="
		40.376,51.929 38.359,51.929 27.651,51.929 26.646,51.929 26.646,88.14 27.651,88.14 28.792,88.14 37.861,88.14 40.113,88.14 
		40.159,88.056 	"/>
	
		<polyline fill="none" stroke="#B081B9" stroke-width="2" stroke-linecap="round" stroke-linejoin="round" stroke-miterlimit="10" points="
		4.92,51.929 26.646,51.929 26.646,88.14 4.92,88.14 	"/>
	<path fill="none" stroke="#B081B9" stroke-width="2" stroke-linecap="round" stroke-linejoin="round" stroke-miterlimit="10" d="
		M40.159,88.043l0.119-0.81h-0.007l1.652-8.565c0.446-2.364,2.723-3.826,5.083-3.381c0.164,0.032,0.322,0.116,0.478,0.166
		c0.035,0.009,0.073,0.046,0.109,0.058c0.122,0.041,0.24,0.098,0.356,0.148c0.029,0.015,0.061,0.033,0.089,0.048
		c0.125,0.058,0.248,0.125,0.365,0.194c0.016,0.008,0.031,0.02,0.047,0.027c1.506,0.912,2.369,2.691,2.022,4.526l-1.45,7.669
		l0.008,0.001l-0.27,1.417c0.008,0.012,0.018,0.021,0.026,0.034l1.529-8.097c0.447-2.362,2.723-3.914,5.081-3.467
		c2.361,0.446,3.916,2.719,3.469,5.081l-0.271,1.429c0.519-2.273,2.739-3.75,5.045-3.312c2.362,0.446,3.915,2.523,3.469,4.887
		l-1.45,7.473h0.006l-0.228,1.398l0.111,0.119l1.501-7.896c0.447-2.36,2.723-3.89,5.083-3.442c2.36,0.444,3.912,2.612,3.467,4.976
		l-1.449,7.562h0.006l-0.401,2.241c-0.032,0.188-0.084,0.427-0.143,0.602l1.497,1.178l1.781,1.666
		c2.001,1.853,5.121,1.739,6.974-0.261c1.853-1.999,1.842-5.069-0.157-6.923l-0.37-0.354c0.006-0.006,0.012-0.011,0.016-0.019
		l2.997,2.821c1.999,1.853,5.122,1.734,6.974-0.268c1.492-1.611,1.812-3.998,0.828-5.832l0.61,0.463
		c1.999,1.854,5.691,2.021,7.548,0.02c1.854-1.999,1.73-5.123-0.269-6.975l-0.352-0.396c0.088,0.083,0.185,0.158,0.279,0.235
		l1.013,0.937c2,1.853,5.12,1.731,6.974-0.269s1.73-5.122-0.265-6.975l-9.918-9.183c0,0-5.95-6.36-10.354-10.694
		c-1.079-1.242-2.298-2.372-3.634-3.362c-0.241-0.192-0.446-0.344-0.607-0.439c-0.007-0.006-0.017-0.01-0.028-0.015
		c-0.944-0.652-1.942-1.234-2.988-1.742c-0.678,1.893-2.271,3.348-4.246,3.834l-3.724,8.452c-1.305,2.966-4.767,4.312-7.733,3.006
		c-2.965-1.307-4.312-4.771-3.004-7.736l4.79-10.875L58.03,47.639c-6.583-1.151-13,0.794-17.894,4.591"/>
	
		<line fill="none" stroke="#B081B9" stroke-width="2" stroke-linecap="round" stroke-linejoin="round" stroke-miterlimit="10" x1="102.709" y1="85.179" x2="90.353" y2="73.312"/>
	
		<line fill="none" stroke="#B081B9" stroke-width="2" stroke-linecap="round" stroke-linejoin="round" stroke-miterlimit="10" x1="94.823" y1="91.635" x2="83.71" y2="80.96"/>
	
		<line fill="none" stroke="#B081B9" stroke-width="2" stroke-linecap="round" stroke-linejoin="round" stroke-miterlimit="10" x1="84.812" y1="95.853" x2="78.149" y2="89.454"/>
	<path fill="none" stroke="#B081B9" stroke-width="2" stroke-linecap="round" stroke-linejoin="round" stroke-miterlimit="10" d="
		M72.137,83.772c-2.36-0.445-4.637,1.26-5.083,3.621l-1.649,8.893h0.006l-0.198,0.898c-0.447,2.36,1.104,4.56,3.465,5.006
		c2.361,0.445,4.635-1.264,5.082-3.625l0.401-2.279h-0.006l1.449-7.551C76.049,86.374,74.497,84.219,72.137,83.772z"/>
	<path fill="none" stroke="#B081B9" stroke-width="2" stroke-linecap="round" stroke-linejoin="round" stroke-miterlimit="10" d="
		M63.644,81.211c-2.359-0.446-4.636,1.181-5.082,3.543l-1.651,8.817h0.007l-0.2,0.974c-0.446,2.363,1.106,4.599,3.466,5.044
		c2.364,0.449,4.637-1.32,5.085-3.679l0.401-2.339h-0.006l1.45-7.475C67.559,83.735,66.006,81.657,63.644,81.211z"/>
	<path fill="none" stroke="#B081B9" stroke-width="2" stroke-linecap="round" stroke-linejoin="round" stroke-miterlimit="10" d="
		M55.4,78.013c-2.358-0.445-4.634,0.971-5.081,3.332l-1.65,8.605h0.006l-0.199,1.188c-0.448,2.359,1.105,4.702,3.465,5.146
		c2.362,0.449,4.637-1.025,5.083-3.385l0.401-2.045h-0.007l1.449-7.713C59.316,80.778,57.762,78.46,55.4,78.013z"/>
	<path fill="none" stroke="#B081B9" stroke-width="2" stroke-linecap="round" stroke-linejoin="round" stroke-miterlimit="10" d="
		M82.949,53.147c0.765,0.406,1.497,0.854,2.203,1.341c0.013,0.005,0.021,0.008,0.028,0.015c0.161,0.095,0.366,0.247,0.607,0.439
		c1.336,0.99,2.555,2.12,3.634,3.362c4.402,4.333,10.354,10.694,10.354,10.694l9.918,9.183c0.24,0.225,0.453,0.469,0.642,0.727
		c2.164-4.241,3.027-9.19,2.145-14.241c-1.235-7.053-5.593-12.773-11.399-15.994c-0.006-0.004-0.015-0.009-0.018-0.014
		C96.275,45.124,81.259,43.9,81.259,43.9l0,0c-3.11-0.41-5.578-0.667-5.578-0.667"/>
	<path fill="none" stroke="#B081B9" stroke-width="2" stroke-linecap="round" stroke-linejoin="round" stroke-miterlimit="10" d="
		M80.787,43.839c-1.963-0.324-4.398-0.543-5.297-0.623c-0.007,0-0.013,0-0.018-0.002c-0.208-0.017-0.33-0.026-0.33-0.026
		l-0.002,0.005c-2.368-0.127-4.674,1.191-5.686,3.49l-5.999,13.619c-1.308,2.966,0.039,6.43,3.004,7.736
		c2.968,1.306,6.429-0.04,7.733-3.006l3.724-8.452c2.034-0.5,3.666-2.025,4.303-3.999"/>
	<path fill="none" stroke="#B081B9" stroke-width="2" stroke-linecap="round" stroke-linejoin="round" stroke-miterlimit="10" d="
		M133.467,51.929h-15.828h-0.716h-11.188c3.42,3.621,5.866,7.656,6.744,12.656c0.884,5.051,0.021,10.04-2.145,14.281
		c1.354,1.867,1.251,4.511-0.377,6.269c-1.854,2.001-4.974,2.13-6.974,0.278l-1.013-0.934c-0.096-0.076-0.191-0.148-0.279-0.231
		l0.352,0.185c1.129,1.045,1.659,2.803,1.575,3.707h13.304l0,0h16.544"/>
	<path fill="none" stroke="#B081B9" stroke-width="2" stroke-linecap="round" stroke-linejoin="round" stroke-miterlimit="10" d="
		M47.007,75.373c-2.36-0.444-4.637,0.931-5.083,3.295l-1.652,8.565h0.007l-0.198,1.223c-0.447,2.361,1.104,4.725,3.464,5.17
		c2.364,0.448,4.637-1.062,5.085-3.421l0.4-2.103l-0.007,0.01l1.45-7.662C50.921,78.088,49.368,75.819,47.007,75.373z"/>
	
		<line fill="none" stroke="#B081B9" stroke-width="2" stroke-linecap="round" stroke-linejoin="round" stroke-miterlimit="10" x1="26.646" y1="58.266" x2="19.404" y2="58.266"/>
	
		<line fill="none" stroke="#B081B9" stroke-width="2" stroke-linecap="round" stroke-linejoin="round" stroke-miterlimit="10" x1="26.646" y1="66.414" x2="19.404" y2="66.414"/>
	
		<line fill="none" stroke="#B081B9" stroke-width="2" stroke-linecap="round" stroke-linejoin="round" stroke-miterlimit="10" x1="26.646" y1="73.655" x2="19.404" y2="73.655"/>
	
		<line fill="none" stroke="#B081B9" stroke-width="2" stroke-linecap="round" stroke-linejoin="round" stroke-miterlimit="10" x1="26.646" y1="80.897" x2="19.404" y2="80.897"/>
</g>
<circle fill="none" stroke="#0096D6" stroke-width="2" stroke-linecap="round" stroke-linejoin="round" stroke-miterlimit="10" cx="69.871" cy="69.23" r="67.893"/>
</svg>
