<?xml version="1.0" encoding="utf-8"?>
<!-- Generator: Adobe Illustrator 16.0.4, SVG Export Plug-In . SVG Version: 6.00 Build 0)  -->
<!DOCTYPE svg PUBLIC "-//W3C//DTD SVG 1.1//EN" "http://www.w3.org/Graphics/SVG/1.1/DTD/svg11.dtd">
<svg version="1.1" id="Layer_1" xmlns="http://www.w3.org/2000/svg" xmlns:xlink="http://www.w3.org/1999/xlink" x="0px" y="0px"
	 width="137.786px" height="137.786px" viewBox="4.626 6.044 137.786 137.786" enable-background="new 4.626 6.044 137.786 137.786"
	 xml:space="preserve">
<circle fill="none" stroke="#0096D6" stroke-width="2" stroke-linecap="round" stroke-linejoin="round" stroke-miterlimit="10" cx="73.519" cy="74.937" r="67.893"/>
<g>
	<path fill="#B081B9" d="M62.965,65.999c-0.034,0.55,0.155,1.112,0.57,1.54c0.782,0.797,2.064,0.816,2.861,0.032l11.491-11.226
		c0.799-0.78,0.813-2.06,0.033-2.861c-0.783-0.799-2.063-0.815-2.863-0.036L63.568,64.675C63.195,65.04,62.993,65.514,62.965,65.999
		z"/>
</g>
<g>
	<path fill="#B081B9" d="M78.213,59.277c-0.031,0.552,0.159,1.112,0.574,1.537c0.78,0.799,2.062,0.814,2.862,0.036l6.411-6.264
		c0.799-0.781,0.813-2.063,0.031-2.862c-0.78-0.8-2.062-0.815-2.861-0.033l-6.41,6.26C78.445,58.316,78.242,58.793,78.213,59.277z"
		/>
</g>
<g>
	<path fill="#B081B9" d="M72.803,65.231c-0.03,0.549,0.157,1.112,0.574,1.538c0.78,0.8,2.062,0.814,2.861,0.033l1.644-1.603
		c0.802-0.783,0.814-2.065,0.033-2.862c-0.779-0.802-2.062-0.818-2.861-0.036l-1.645,1.607
		C73.035,64.272,72.834,64.747,72.803,65.231z"/>
</g>
<g>
	
		<circle fill="none" stroke="#B081B9" stroke-width="2" stroke-linecap="round" stroke-linejoin="round" stroke-miterlimit="10" cx="81.763" cy="65.585" r="22.944"/>
	<path fill="none" stroke="#B081B9" stroke-width="2" stroke-linecap="round" stroke-linejoin="round" stroke-miterlimit="10" d="
		M63.37,89.791c-2.145-1.631-4.064-3.54-5.708-5.675l-25.088,25.328c-1.564,1.58-1.552,4.13,0.027,5.693
		c1.577,1.563,4.129,1.553,5.691-0.025L63.37,89.791z"/>
	<path fill="none" stroke="#B081B9" stroke-width="2" stroke-linecap="round" stroke-linejoin="round" stroke-miterlimit="10" d="
		M81.616,35.178c-16.79,0.08-30.341,13.759-30.26,30.553c0.081,16.792,13.762,30.341,30.554,30.26
		c16.794-0.081,30.341-13.76,30.261-30.552C112.091,48.646,98.412,35.098,81.616,35.178z M81.875,88.528
		C69.201,88.59,58.879,78.366,58.819,65.694C58.758,53.021,68.981,42.7,81.654,42.639c12.671-0.061,22.992,10.163,23.053,22.836
		C104.769,78.146,94.545,88.469,81.875,88.528z"/>
</g>
</svg>
