<?xml version="1.0" encoding="utf-8"?>
<!-- Generator: Adobe Illustrator 16.0.4, SVG Export Plug-In . SVG Version: 6.00 Build 0)  -->
<!DOCTYPE svg PUBLIC "-//W3C//DTD SVG 1.1//EN" "http://www.w3.org/Graphics/SVG/1.1/DTD/svg11.dtd">
<svg version="1.1" id="Layer_1" xmlns="http://www.w3.org/2000/svg" xmlns:xlink="http://www.w3.org/1999/xlink" x="0px" y="0px"
	 width="161px" height="161px" viewBox="0 0 161 161" enable-background="new 0 0 161 161" xml:space="preserve">
<g display="none">
	<rect x="0.5" y="0.5" display="inline" fill="none" stroke="#B7B7B7" stroke-miterlimit="10" width="160" height="160"/>
	<line display="inline" fill="none" stroke="#B7B7B7" stroke-miterlimit="10" x1="161" y1="9.5" x2="1" y2="9.5"/>
	<line display="inline" fill="none" stroke="#B7B7B7" stroke-miterlimit="10" x1="161" y1="18.5" x2="1" y2="18.5"/>
	<line display="inline" fill="none" stroke="#B7B7B7" stroke-miterlimit="10" x1="161" y1="28.5" x2="1" y2="28.5"/>
	<line display="inline" fill="none" stroke="#B7B7B7" stroke-miterlimit="10" x1="161" y1="37.5" x2="1" y2="37.5"/>
	<line display="inline" fill="none" stroke="#B7B7B7" stroke-miterlimit="10" x1="161" y1="47.5" x2="1" y2="47.5"/>
	<line display="inline" fill="none" stroke="#B7B7B7" stroke-miterlimit="10" x1="161" y1="56.5" x2="1" y2="56.5"/>
	<line display="inline" fill="none" stroke="#B7B7B7" stroke-miterlimit="10" x1="161" y1="65.5" x2="1" y2="65.5"/>
	<line display="inline" fill="none" stroke="#B7B7B7" stroke-miterlimit="10" x1="161" y1="75.5" x2="1" y2="75.5"/>
	<line display="inline" fill="none" stroke="#B7B7B7" stroke-miterlimit="10" x1="161" y1="84.5" x2="1" y2="84.5"/>
	<line display="inline" fill="none" stroke="#B7B7B7" stroke-miterlimit="10" x1="161" y1="94.5" x2="1" y2="94.5"/>
	<line display="inline" fill="none" stroke="#B7B7B7" stroke-miterlimit="10" x1="161" y1="103.5" x2="1" y2="103.5"/>
	<line display="inline" fill="none" stroke="#B7B7B7" stroke-miterlimit="10" x1="161" y1="112.5" x2="1" y2="112.5"/>
	<line display="inline" fill="none" stroke="#B7B7B7" stroke-miterlimit="10" x1="161" y1="122.5" x2="1" y2="122.5"/>
	<line display="inline" fill="none" stroke="#B7B7B7" stroke-miterlimit="10" x1="161" y1="131.5" x2="1" y2="131.5"/>
	<line display="inline" fill="none" stroke="#B7B7B7" stroke-miterlimit="10" x1="161" y1="141.5" x2="1" y2="141.5"/>
	<line display="inline" fill="none" stroke="#B7B7B7" stroke-miterlimit="10" x1="161" y1="150.5" x2="1" y2="150.5"/>
	<line display="inline" fill="none" stroke="#B7B7B7" stroke-miterlimit="10" x1="10.5" y1="160" x2="10.5" y2="0"/>
	<line display="inline" fill="none" stroke="#B7B7B7" stroke-miterlimit="10" x1="19.5" y1="160" x2="19.5" y2="0"/>
	<line display="inline" fill="none" stroke="#B7B7B7" stroke-miterlimit="10" x1="29.5" y1="160" x2="29.5" y2="0"/>
	<line display="inline" fill="none" stroke="#B7B7B7" stroke-miterlimit="10" x1="38.5" y1="160" x2="38.5" y2="0"/>
	<line display="inline" fill="none" stroke="#B7B7B7" stroke-miterlimit="10" x1="48.5" y1="160" x2="48.5" y2="0"/>
	<line display="inline" fill="none" stroke="#B7B7B7" stroke-miterlimit="10" x1="57.5" y1="160" x2="57.5" y2="0"/>
	<line display="inline" fill="none" stroke="#B7B7B7" stroke-miterlimit="10" x1="66.5" y1="160" x2="66.5" y2="0"/>
	<line display="inline" fill="none" stroke="#B7B7B7" stroke-miterlimit="10" x1="76.5" y1="160" x2="76.5" y2="0"/>
	<line display="inline" fill="none" stroke="#B7B7B7" stroke-miterlimit="10" x1="85.5" y1="160" x2="85.5" y2="0"/>
	<line display="inline" fill="none" stroke="#B7B7B7" stroke-miterlimit="10" x1="95.5" y1="160" x2="95.5" y2="0"/>
	<line display="inline" fill="none" stroke="#B7B7B7" stroke-miterlimit="10" x1="104.5" y1="160" x2="104.5" y2="0"/>
	<line display="inline" fill="none" stroke="#B7B7B7" stroke-miterlimit="10" x1="113.5" y1="160" x2="113.5" y2="0"/>
	<line display="inline" fill="none" stroke="#B7B7B7" stroke-miterlimit="10" x1="123.5" y1="160" x2="123.5" y2="0"/>
	<line display="inline" fill="none" stroke="#B7B7B7" stroke-miterlimit="10" x1="132.5" y1="160" x2="132.5" y2="0"/>
	<line display="inline" fill="none" stroke="#B7B7B7" stroke-miterlimit="10" x1="142.5" y1="160" x2="142.5" y2="0"/>
	<line display="inline" fill="none" stroke="#B7B7B7" stroke-miterlimit="10" x1="151.5" y1="160" x2="151.5" y2="0"/>
</g>
<path fill="#292F34" d="M94.789,142.159c-2.838,0-5.135-2.3-5.135-5.134V123.58c0-2.762,2.178-5.025,4.937-5.131
	c4.78-0.184,10.306-2.059,14.419-4.817c2.326-1.229,2.029-2.728,2.029-3.456V50.424c0,0,0.159-1.655-1.123-2.437
	c-3.854-2.75-9.686-5.218-15.325-5.435c-2.759-0.103-4.937-2.371-4.937-5.133V23.976c0-2.834,2.297-5.132,5.135-5.132
	c11.789,0,24.309,4.786,33.636,12.565c0.591,0.498,6.634,5.527,6.634,20.8v56.586c0,0.844,0.338,14.93-6.328,20.666
	C119.688,137.682,106.675,142.159,94.789,142.159 M32.275,129.462c9.043,8.218,22.053,12.698,33.937,12.698
	c2.837,0,5.141-2.303,5.141-5.135v-13.447c0-2.762-2.185-5.026-4.939-5.13c-4.782-0.185-10.311-2.06-14.42-4.815
	c-2.327-1.23-2.029-2.727-2.029-3.453V50.425c0,0-0.162-1.654,1.125-2.438c3.855-2.751,9.687-5.217,15.324-5.432
	c2.755-0.105,4.939-2.375,4.939-5.137V23.976c0-2.833-2.304-5.136-5.141-5.136c-11.781,0-24.306,4.79-33.631,12.568
	c-0.595,0.496-6.638,5.528-6.638,20.8v56.588C25.942,109.643,25.607,123.723,32.275,129.462"/>
</svg>
