<?xml version="1.0" encoding="utf-8"?>
<!-- Generator: Adobe Illustrator 16.0.4, SVG Export Plug-In . SVG Version: 6.00 Build 0)  -->
<!DOCTYPE svg PUBLIC "-//W3C//DTD SVG 1.1//EN" "http://www.w3.org/Graphics/SVG/1.1/DTD/svg11.dtd">
<svg version="1.1" id="Layer_1" xmlns="http://www.w3.org/2000/svg" xmlns:xlink="http://www.w3.org/1999/xlink" x="0px" y="0px"
	 width="161px" height="161px" viewBox="0 0 161 161" enable-background="new 0 0 161 161" xml:space="preserve">
<g display="none">
	<rect x="0.5" y="0.5" display="inline" fill="none" stroke="#B7B7B7" stroke-miterlimit="10" width="160" height="160"/>
	<line display="inline" fill="none" stroke="#B7B7B7" stroke-miterlimit="10" x1="161" y1="9.5" x2="1" y2="9.5"/>
	<line display="inline" fill="none" stroke="#B7B7B7" stroke-miterlimit="10" x1="161" y1="18.5" x2="1" y2="18.5"/>
	<line display="inline" fill="none" stroke="#B7B7B7" stroke-miterlimit="10" x1="161" y1="28.5" x2="1" y2="28.5"/>
	<line display="inline" fill="none" stroke="#B7B7B7" stroke-miterlimit="10" x1="161" y1="37.5" x2="1" y2="37.5"/>
	<line display="inline" fill="none" stroke="#B7B7B7" stroke-miterlimit="10" x1="161" y1="47.5" x2="1" y2="47.5"/>
	<line display="inline" fill="none" stroke="#B7B7B7" stroke-miterlimit="10" x1="161" y1="56.5" x2="1" y2="56.5"/>
	<line display="inline" fill="none" stroke="#B7B7B7" stroke-miterlimit="10" x1="161" y1="65.5" x2="1" y2="65.5"/>
	<line display="inline" fill="none" stroke="#B7B7B7" stroke-miterlimit="10" x1="161" y1="75.5" x2="1" y2="75.5"/>
	<line display="inline" fill="none" stroke="#B7B7B7" stroke-miterlimit="10" x1="161" y1="84.5" x2="1" y2="84.5"/>
	<line display="inline" fill="none" stroke="#B7B7B7" stroke-miterlimit="10" x1="161" y1="94.5" x2="1" y2="94.5"/>
	<line display="inline" fill="none" stroke="#B7B7B7" stroke-miterlimit="10" x1="161" y1="103.5" x2="1" y2="103.5"/>
	<line display="inline" fill="none" stroke="#B7B7B7" stroke-miterlimit="10" x1="161" y1="112.5" x2="1" y2="112.5"/>
	<line display="inline" fill="none" stroke="#B7B7B7" stroke-miterlimit="10" x1="161" y1="122.5" x2="1" y2="122.5"/>
	<line display="inline" fill="none" stroke="#B7B7B7" stroke-miterlimit="10" x1="161" y1="131.5" x2="1" y2="131.5"/>
	<line display="inline" fill="none" stroke="#B7B7B7" stroke-miterlimit="10" x1="161" y1="141.5" x2="1" y2="141.5"/>
	<line display="inline" fill="none" stroke="#B7B7B7" stroke-miterlimit="10" x1="161" y1="150.5" x2="1" y2="150.5"/>
	<line display="inline" fill="none" stroke="#B7B7B7" stroke-miterlimit="10" x1="10.5" y1="160" x2="10.5" y2="0"/>
	<line display="inline" fill="none" stroke="#B7B7B7" stroke-miterlimit="10" x1="19.5" y1="160" x2="19.5" y2="0"/>
	<line display="inline" fill="none" stroke="#B7B7B7" stroke-miterlimit="10" x1="29.5" y1="160" x2="29.5" y2="0"/>
	<line display="inline" fill="none" stroke="#B7B7B7" stroke-miterlimit="10" x1="38.5" y1="160" x2="38.5" y2="0"/>
	<line display="inline" fill="none" stroke="#B7B7B7" stroke-miterlimit="10" x1="48.5" y1="160" x2="48.5" y2="0"/>
	<line display="inline" fill="none" stroke="#B7B7B7" stroke-miterlimit="10" x1="57.5" y1="160" x2="57.5" y2="0"/>
	<line display="inline" fill="none" stroke="#B7B7B7" stroke-miterlimit="10" x1="66.5" y1="160" x2="66.5" y2="0"/>
	<line display="inline" fill="none" stroke="#B7B7B7" stroke-miterlimit="10" x1="76.5" y1="160" x2="76.5" y2="0"/>
	<line display="inline" fill="none" stroke="#B7B7B7" stroke-miterlimit="10" x1="85.5" y1="160" x2="85.5" y2="0"/>
	<line display="inline" fill="none" stroke="#B7B7B7" stroke-miterlimit="10" x1="95.5" y1="160" x2="95.5" y2="0"/>
	<line display="inline" fill="none" stroke="#B7B7B7" stroke-miterlimit="10" x1="104.5" y1="160" x2="104.5" y2="0"/>
	<line display="inline" fill="none" stroke="#B7B7B7" stroke-miterlimit="10" x1="113.5" y1="160" x2="113.5" y2="0"/>
	<line display="inline" fill="none" stroke="#B7B7B7" stroke-miterlimit="10" x1="123.5" y1="160" x2="123.5" y2="0"/>
	<line display="inline" fill="none" stroke="#B7B7B7" stroke-miterlimit="10" x1="132.5" y1="160" x2="132.5" y2="0"/>
	<line display="inline" fill="none" stroke="#B7B7B7" stroke-miterlimit="10" x1="142.5" y1="160" x2="142.5" y2="0"/>
	<line display="inline" fill="none" stroke="#B7B7B7" stroke-miterlimit="10" x1="151.5" y1="160" x2="151.5" y2="0"/>
</g>
<g>
	<path fill="#292F34" d="M107.839,57.493c12.368,0,22.388,10.131,22.388,22.641c0,12.476-9.955,22.587-22.289,22.647v-8.026
		c0-2.396-1.965-4.325-4.429-4.325c-0.973,0-1.884,0.309-2.616,0.842l-23.425,17.686c-2.701,2.736-2.701,5.495,0,8.236
		l23.425,17.681c0.732,0.533,1.645,0.847,2.616,0.847c2.464,0,4.429-1.937,4.429-4.326v-8.024
		c23.566-0.063,42.66-19.396,42.66-43.234c0-23.873-19.15-43.229-42.759-43.229"/>
	<path fill="#292F34" d="M53.16,103.508c-12.366,0-22.386-10.132-22.386-22.642c0-12.476,9.955-22.585,22.287-22.646v8.025
		c0,2.395,1.97,4.325,4.427,4.325c0.977,0,1.888-0.307,2.62-0.84l23.425-17.688c2.701-2.735,2.701-5.494,0-8.235l-23.425-17.68
		c-0.732-0.533-1.644-0.846-2.62-0.846c-2.457,0-4.427,1.936-4.427,4.325v8.025c-23.563,0.063-42.658,19.395-42.658,43.234
		c0,23.873,19.151,43.228,42.757,43.228"/>
</g>
</svg>
