<?xml version="1.0" encoding="utf-8"?>
<!-- Generator: Adobe Illustrator 16.0.4, SVG Export Plug-In . SVG Version: 6.00 Build 0)  -->
<!DOCTYPE svg PUBLIC "-//W3C//DTD SVG 1.1//EN" "http://www.w3.org/Graphics/SVG/1.1/DTD/svg11.dtd">
<svg version="1.1" id="Layer_1" xmlns="http://www.w3.org/2000/svg" xmlns:xlink="http://www.w3.org/1999/xlink" x="0px" y="0px"
	 width="161px" height="161px" viewBox="0 0 161 161" enable-background="new 0 0 161 161" xml:space="preserve">
<g display="none">
	<rect x="0.5" y="0.5" display="inline" fill="none" stroke="#B7B7B7" stroke-miterlimit="10" width="160" height="160"/>
	<line display="inline" fill="none" stroke="#B7B7B7" stroke-miterlimit="10" x1="161" y1="9.5" x2="1" y2="9.5"/>
	<line display="inline" fill="none" stroke="#B7B7B7" stroke-miterlimit="10" x1="161" y1="18.5" x2="1" y2="18.5"/>
	<line display="inline" fill="none" stroke="#B7B7B7" stroke-miterlimit="10" x1="161" y1="28.5" x2="1" y2="28.5"/>
	<line display="inline" fill="none" stroke="#B7B7B7" stroke-miterlimit="10" x1="161" y1="37.5" x2="1" y2="37.5"/>
	<line display="inline" fill="none" stroke="#B7B7B7" stroke-miterlimit="10" x1="161" y1="47.5" x2="1" y2="47.5"/>
	<line display="inline" fill="none" stroke="#B7B7B7" stroke-miterlimit="10" x1="161" y1="56.5" x2="1" y2="56.5"/>
	<line display="inline" fill="none" stroke="#B7B7B7" stroke-miterlimit="10" x1="161" y1="65.5" x2="1" y2="65.5"/>
	<line display="inline" fill="none" stroke="#B7B7B7" stroke-miterlimit="10" x1="161" y1="75.5" x2="1" y2="75.5"/>
	<line display="inline" fill="none" stroke="#B7B7B7" stroke-miterlimit="10" x1="161" y1="84.5" x2="1" y2="84.5"/>
	<line display="inline" fill="none" stroke="#B7B7B7" stroke-miterlimit="10" x1="161" y1="94.5" x2="1" y2="94.5"/>
	<line display="inline" fill="none" stroke="#B7B7B7" stroke-miterlimit="10" x1="161" y1="103.5" x2="1" y2="103.5"/>
	<line display="inline" fill="none" stroke="#B7B7B7" stroke-miterlimit="10" x1="161" y1="112.5" x2="1" y2="112.5"/>
	<line display="inline" fill="none" stroke="#B7B7B7" stroke-miterlimit="10" x1="161" y1="122.5" x2="1" y2="122.5"/>
	<line display="inline" fill="none" stroke="#B7B7B7" stroke-miterlimit="10" x1="161" y1="131.5" x2="1" y2="131.5"/>
	<line display="inline" fill="none" stroke="#B7B7B7" stroke-miterlimit="10" x1="161" y1="141.5" x2="1" y2="141.5"/>
	<line display="inline" fill="none" stroke="#B7B7B7" stroke-miterlimit="10" x1="161" y1="150.5" x2="1" y2="150.5"/>
	<line display="inline" fill="none" stroke="#B7B7B7" stroke-miterlimit="10" x1="10.5" y1="160" x2="10.5" y2="0"/>
	<line display="inline" fill="none" stroke="#B7B7B7" stroke-miterlimit="10" x1="19.5" y1="160" x2="19.5" y2="0"/>
	<line display="inline" fill="none" stroke="#B7B7B7" stroke-miterlimit="10" x1="29.5" y1="160" x2="29.5" y2="0"/>
	<line display="inline" fill="none" stroke="#B7B7B7" stroke-miterlimit="10" x1="38.5" y1="160" x2="38.5" y2="0"/>
	<line display="inline" fill="none" stroke="#B7B7B7" stroke-miterlimit="10" x1="48.5" y1="160" x2="48.5" y2="0"/>
	<line display="inline" fill="none" stroke="#B7B7B7" stroke-miterlimit="10" x1="57.5" y1="160" x2="57.5" y2="0"/>
	<line display="inline" fill="none" stroke="#B7B7B7" stroke-miterlimit="10" x1="66.5" y1="160" x2="66.5" y2="0"/>
	<line display="inline" fill="none" stroke="#B7B7B7" stroke-miterlimit="10" x1="76.5" y1="160" x2="76.5" y2="0"/>
	<line display="inline" fill="none" stroke="#B7B7B7" stroke-miterlimit="10" x1="85.5" y1="160" x2="85.5" y2="0"/>
	<line display="inline" fill="none" stroke="#B7B7B7" stroke-miterlimit="10" x1="95.5" y1="160" x2="95.5" y2="0"/>
	<line display="inline" fill="none" stroke="#B7B7B7" stroke-miterlimit="10" x1="104.5" y1="160" x2="104.5" y2="0"/>
	<line display="inline" fill="none" stroke="#B7B7B7" stroke-miterlimit="10" x1="113.5" y1="160" x2="113.5" y2="0"/>
	<line display="inline" fill="none" stroke="#B7B7B7" stroke-miterlimit="10" x1="123.5" y1="160" x2="123.5" y2="0"/>
	<line display="inline" fill="none" stroke="#B7B7B7" stroke-miterlimit="10" x1="132.5" y1="160" x2="132.5" y2="0"/>
	<line display="inline" fill="none" stroke="#B7B7B7" stroke-miterlimit="10" x1="142.5" y1="160" x2="142.5" y2="0"/>
	<line display="inline" fill="none" stroke="#B7B7B7" stroke-miterlimit="10" x1="151.5" y1="160" x2="151.5" y2="0"/>
</g>
<path fill="#292F34" d="M58.402,104.443l5.914-7.051l-5.387-6.3l-7.882,4.749c-1.325-0.88-2.757-1.613-4.282-2.177l-0.801-9.167
	L37.7,83.855l-2.214,8.933c-1.592,0.319-3.123,0.819-4.567,1.485l-7.05-5.912l-6.299,5.387l4.75,7.884
	c-0.881,1.321-1.615,2.759-2.176,4.279l-9.168,0.802l-0.645,8.266l8.932,2.215c0.32,1.595,0.822,3.121,1.487,4.563l-5.914,7.052
	l5.388,6.299l7.881-4.748c1.324,0.882,2.76,1.617,4.281,2.18l0.803,9.167l8.264,0.644l2.214-8.931
	c1.591-0.321,3.123-0.821,4.569-1.487l7.048,5.916l6.299-5.389l-4.75-7.882c0.882-1.324,1.616-2.761,2.178-4.283l9.167-0.802
	l0.645-8.264l-8.932-2.215C59.568,107.42,59.068,105.891,58.402,104.443z M38.932,121.365c-4.563-0.355-7.975-4.348-7.617-8.909
	c0.355-4.563,4.342-7.978,8.908-7.617c4.562,0.354,7.975,4.347,7.618,8.906C47.484,118.311,43.495,121.723,38.932,121.365z
	 M150.668,68.382v-8.289l-8.725-1.586c-0.16-1.041-0.367-2.07-0.613-3.081l7.455-4.805l-3.172-7.658l-8.67,1.875
	c-0.545-0.897-1.129-1.765-1.748-2.606l5.055-7.297l-5.861-5.859l-7.297,5.051c-0.844-0.618-1.713-1.203-2.607-1.748l1.873-8.671
	l-7.654-3.172l-4.807,7.454c-1.012-0.244-2.039-0.452-3.082-0.609l-1.586-8.729h-8.289l-1.586,8.729
	c-1.041,0.157-2.07,0.365-3.084,0.609l-4.803-7.454l-7.658,3.172l1.877,8.671c-0.896,0.545-1.764,1.13-2.605,1.748l-7.297-5.052
	l-5.86,5.86l5.051,7.297c-0.617,0.843-1.203,1.711-1.748,2.605l-8.672-1.874l-3.171,7.658l7.455,4.805
	c-0.244,1.011-0.451,2.04-0.61,3.08L59.5,60.093v8.289l8.727,1.586c0.16,1.043,0.365,2.069,0.61,3.081l-7.455,4.806l3.171,7.656
	l8.672-1.872c0.545,0.896,1.131,1.766,1.748,2.606l-5.053,7.297l5.861,5.858l7.297-5.053c0.844,0.618,1.711,1.203,2.607,1.746
	l-1.877,8.672l7.656,3.172l4.807-7.455c1.014,0.246,2.041,0.451,3.082,0.61l1.586,8.729h8.289l1.586-8.729
	c1.043-0.161,2.068-0.364,3.082-0.608l4.805,7.453l7.656-3.172l-1.873-8.668c0.893-0.547,1.764-1.132,2.605-1.748l7.299,5.051
	l5.859-5.858l-5.057-7.297c0.619-0.845,1.203-1.713,1.748-2.604l8.67,1.873l3.174-7.659l-7.455-4.806
	c0.248-1.012,0.453-2.038,0.611-3.081L150.668,68.382z M105.084,82.268c-9.959,0-18.029-8.073-18.029-18.028
	c0-9.956,8.07-18.026,18.029-18.026c9.955,0,18.027,8.07,18.027,18.026C123.109,74.192,115.039,82.268,105.084,82.268z"/>
</svg>
