<?xml version="1.0" encoding="utf-8"?>
<!-- Generator: Adobe Illustrator 16.0.4, SVG Export Plug-In . SVG Version: 6.00 Build 0)  -->
<!DOCTYPE svg PUBLIC "-//W3C//DTD SVG 1.1//EN" "http://www.w3.org/Graphics/SVG/1.1/DTD/svg11.dtd">
<svg version="1.1" id="Layer_1" xmlns="http://www.w3.org/2000/svg" xmlns:xlink="http://www.w3.org/1999/xlink" x="0px" y="0px"
	 width="161px" height="161px" viewBox="0 0 161 161" enable-background="new 0 0 161 161" xml:space="preserve">
<g display="none">
	<rect x="0.5" y="0.5" display="inline" fill="none" stroke="#B7B7B7" stroke-miterlimit="10" width="160" height="160"/>
	<line display="inline" fill="none" stroke="#B7B7B7" stroke-miterlimit="10" x1="161" y1="9.5" x2="1" y2="9.5"/>
	<line display="inline" fill="none" stroke="#B7B7B7" stroke-miterlimit="10" x1="161" y1="18.5" x2="1" y2="18.5"/>
	<line display="inline" fill="none" stroke="#B7B7B7" stroke-miterlimit="10" x1="161" y1="28.5" x2="1" y2="28.5"/>
	<line display="inline" fill="none" stroke="#B7B7B7" stroke-miterlimit="10" x1="161" y1="37.5" x2="1" y2="37.5"/>
	<line display="inline" fill="none" stroke="#B7B7B7" stroke-miterlimit="10" x1="161" y1="47.5" x2="1" y2="47.5"/>
	<line display="inline" fill="none" stroke="#B7B7B7" stroke-miterlimit="10" x1="161" y1="56.5" x2="1" y2="56.5"/>
	<line display="inline" fill="none" stroke="#B7B7B7" stroke-miterlimit="10" x1="161" y1="65.5" x2="1" y2="65.5"/>
	<line display="inline" fill="none" stroke="#B7B7B7" stroke-miterlimit="10" x1="161" y1="75.5" x2="1" y2="75.5"/>
	<line display="inline" fill="none" stroke="#B7B7B7" stroke-miterlimit="10" x1="161" y1="84.5" x2="1" y2="84.5"/>
	<line display="inline" fill="none" stroke="#B7B7B7" stroke-miterlimit="10" x1="161" y1="94.5" x2="1" y2="94.5"/>
	<line display="inline" fill="none" stroke="#B7B7B7" stroke-miterlimit="10" x1="161" y1="103.5" x2="1" y2="103.5"/>
	<line display="inline" fill="none" stroke="#B7B7B7" stroke-miterlimit="10" x1="161" y1="112.5" x2="1" y2="112.5"/>
	<line display="inline" fill="none" stroke="#B7B7B7" stroke-miterlimit="10" x1="161" y1="122.5" x2="1" y2="122.5"/>
	<line display="inline" fill="none" stroke="#B7B7B7" stroke-miterlimit="10" x1="161" y1="131.5" x2="1" y2="131.5"/>
	<line display="inline" fill="none" stroke="#B7B7B7" stroke-miterlimit="10" x1="161" y1="141.5" x2="1" y2="141.5"/>
	<line display="inline" fill="none" stroke="#B7B7B7" stroke-miterlimit="10" x1="161" y1="150.5" x2="1" y2="150.5"/>
	<line display="inline" fill="none" stroke="#B7B7B7" stroke-miterlimit="10" x1="10.5" y1="160" x2="10.5" y2="0"/>
	<line display="inline" fill="none" stroke="#B7B7B7" stroke-miterlimit="10" x1="19.5" y1="160" x2="19.5" y2="0"/>
	<line display="inline" fill="none" stroke="#B7B7B7" stroke-miterlimit="10" x1="29.5" y1="160" x2="29.5" y2="0"/>
	<line display="inline" fill="none" stroke="#B7B7B7" stroke-miterlimit="10" x1="38.5" y1="160" x2="38.5" y2="0"/>
	<line display="inline" fill="none" stroke="#B7B7B7" stroke-miterlimit="10" x1="48.5" y1="160" x2="48.5" y2="0"/>
	<line display="inline" fill="none" stroke="#B7B7B7" stroke-miterlimit="10" x1="57.5" y1="160" x2="57.5" y2="0"/>
	<line display="inline" fill="none" stroke="#B7B7B7" stroke-miterlimit="10" x1="66.5" y1="160" x2="66.5" y2="0"/>
	<line display="inline" fill="none" stroke="#B7B7B7" stroke-miterlimit="10" x1="76.5" y1="160" x2="76.5" y2="0"/>
	<line display="inline" fill="none" stroke="#B7B7B7" stroke-miterlimit="10" x1="85.5" y1="160" x2="85.5" y2="0"/>
	<line display="inline" fill="none" stroke="#B7B7B7" stroke-miterlimit="10" x1="95.5" y1="160" x2="95.5" y2="0"/>
	<line display="inline" fill="none" stroke="#B7B7B7" stroke-miterlimit="10" x1="104.5" y1="160" x2="104.5" y2="0"/>
	<line display="inline" fill="none" stroke="#B7B7B7" stroke-miterlimit="10" x1="113.5" y1="160" x2="113.5" y2="0"/>
	<line display="inline" fill="none" stroke="#B7B7B7" stroke-miterlimit="10" x1="123.5" y1="160" x2="123.5" y2="0"/>
	<line display="inline" fill="none" stroke="#B7B7B7" stroke-miterlimit="10" x1="132.5" y1="160" x2="132.5" y2="0"/>
	<line display="inline" fill="none" stroke="#B7B7B7" stroke-miterlimit="10" x1="142.5" y1="160" x2="142.5" y2="0"/>
	<line display="inline" fill="none" stroke="#B7B7B7" stroke-miterlimit="10" x1="151.5" y1="160" x2="151.5" y2="0"/>
</g>
<path fill="#292F34" d="M67.369,115.686l70.527-105.654l9.057-0.004c0,0-74.606,137.491-70.742,140.784
	c3.876,3.293-62.164-44.457-62.164-44.457l17.964-25.807L67.369,115.686z"/>
</svg>
