<?xml version="1.0" encoding="utf-8"?>
<!-- Generator: Adobe Illustrator 16.0.4, SVG Export Plug-In . SVG Version: 6.00 Build 0)  -->
<!DOCTYPE svg PUBLIC "-//W3C//DTD SVG 1.1//EN" "http://www.w3.org/Graphics/SVG/1.1/DTD/svg11.dtd">
<svg version="1.1" id="Layer_1" xmlns="http://www.w3.org/2000/svg" xmlns:xlink="http://www.w3.org/1999/xlink" x="0px" y="0px"
	 width="161px" height="161px" viewBox="0 0 161 161" enable-background="new 0 0 161 161" xml:space="preserve">
<g display="none">
	<rect x="0.5" y="0.5" display="inline" fill="none" stroke="#B7B7B7" stroke-miterlimit="10" width="160" height="160"/>
	<line display="inline" fill="none" stroke="#B7B7B7" stroke-miterlimit="10" x1="161" y1="9.5" x2="1" y2="9.5"/>
	<line display="inline" fill="none" stroke="#B7B7B7" stroke-miterlimit="10" x1="161" y1="18.5" x2="1" y2="18.5"/>
	<line display="inline" fill="none" stroke="#B7B7B7" stroke-miterlimit="10" x1="161" y1="28.5" x2="1" y2="28.5"/>
	<line display="inline" fill="none" stroke="#B7B7B7" stroke-miterlimit="10" x1="161" y1="37.5" x2="1" y2="37.5"/>
	<line display="inline" fill="none" stroke="#B7B7B7" stroke-miterlimit="10" x1="161" y1="47.5" x2="1" y2="47.5"/>
	<line display="inline" fill="none" stroke="#B7B7B7" stroke-miterlimit="10" x1="161" y1="56.5" x2="1" y2="56.5"/>
	<line display="inline" fill="none" stroke="#B7B7B7" stroke-miterlimit="10" x1="161" y1="65.5" x2="1" y2="65.5"/>
	<line display="inline" fill="none" stroke="#B7B7B7" stroke-miterlimit="10" x1="161" y1="75.5" x2="1" y2="75.5"/>
	<line display="inline" fill="none" stroke="#B7B7B7" stroke-miterlimit="10" x1="161" y1="84.5" x2="1" y2="84.5"/>
	<line display="inline" fill="none" stroke="#B7B7B7" stroke-miterlimit="10" x1="161" y1="94.5" x2="1" y2="94.5"/>
	<line display="inline" fill="none" stroke="#B7B7B7" stroke-miterlimit="10" x1="161" y1="103.5" x2="1" y2="103.5"/>
	<line display="inline" fill="none" stroke="#B7B7B7" stroke-miterlimit="10" x1="161" y1="112.5" x2="1" y2="112.5"/>
	<line display="inline" fill="none" stroke="#B7B7B7" stroke-miterlimit="10" x1="161" y1="122.5" x2="1" y2="122.5"/>
	<line display="inline" fill="none" stroke="#B7B7B7" stroke-miterlimit="10" x1="161" y1="131.5" x2="1" y2="131.5"/>
	<line display="inline" fill="none" stroke="#B7B7B7" stroke-miterlimit="10" x1="161" y1="141.5" x2="1" y2="141.5"/>
	<line display="inline" fill="none" stroke="#B7B7B7" stroke-miterlimit="10" x1="161" y1="150.5" x2="1" y2="150.5"/>
	<line display="inline" fill="none" stroke="#B7B7B7" stroke-miterlimit="10" x1="10.5" y1="160" x2="10.5" y2="0"/>
	<line display="inline" fill="none" stroke="#B7B7B7" stroke-miterlimit="10" x1="19.5" y1="160" x2="19.5" y2="0"/>
	<line display="inline" fill="none" stroke="#B7B7B7" stroke-miterlimit="10" x1="29.5" y1="160" x2="29.5" y2="0"/>
	<line display="inline" fill="none" stroke="#B7B7B7" stroke-miterlimit="10" x1="38.5" y1="160" x2="38.5" y2="0"/>
	<line display="inline" fill="none" stroke="#B7B7B7" stroke-miterlimit="10" x1="48.5" y1="160" x2="48.5" y2="0"/>
	<line display="inline" fill="none" stroke="#B7B7B7" stroke-miterlimit="10" x1="57.5" y1="160" x2="57.5" y2="0"/>
	<line display="inline" fill="none" stroke="#B7B7B7" stroke-miterlimit="10" x1="66.5" y1="160" x2="66.5" y2="0"/>
	<line display="inline" fill="none" stroke="#B7B7B7" stroke-miterlimit="10" x1="76.5" y1="160" x2="76.5" y2="0"/>
	<line display="inline" fill="none" stroke="#B7B7B7" stroke-miterlimit="10" x1="85.5" y1="160" x2="85.5" y2="0"/>
	<line display="inline" fill="none" stroke="#B7B7B7" stroke-miterlimit="10" x1="95.5" y1="160" x2="95.5" y2="0"/>
	<line display="inline" fill="none" stroke="#B7B7B7" stroke-miterlimit="10" x1="104.5" y1="160" x2="104.5" y2="0"/>
	<line display="inline" fill="none" stroke="#B7B7B7" stroke-miterlimit="10" x1="113.5" y1="160" x2="113.5" y2="0"/>
	<line display="inline" fill="none" stroke="#B7B7B7" stroke-miterlimit="10" x1="123.5" y1="160" x2="123.5" y2="0"/>
	<line display="inline" fill="none" stroke="#B7B7B7" stroke-miterlimit="10" x1="132.5" y1="160" x2="132.5" y2="0"/>
	<line display="inline" fill="none" stroke="#B7B7B7" stroke-miterlimit="10" x1="142.5" y1="160" x2="142.5" y2="0"/>
	<line display="inline" fill="none" stroke="#B7B7B7" stroke-miterlimit="10" x1="151.5" y1="160" x2="151.5" y2="0"/>
</g>
<path fill="#292F34" d="M54.218,80.496c4.841,0,8.762,3.923,8.762,8.761v35.05c0,4.844-3.921,8.76-8.762,8.76h-8.76v17.521h70.084
	v-17.521h-8.728c-4.824,0-8.795-3.916-8.795-8.76l-0.018-61.331H45.459v17.521L54.218,80.496L54.218,80.496z M62.979,27.934
	c0,9.681,7.844,17.521,17.521,17.521c9.676,0,17.52-7.841,17.52-17.521c0-9.673-7.844-17.521-17.52-17.521
	C70.823,10.414,62.979,18.261,62.979,27.934z"/>
</svg>
